<mxfile host="app.diagrams.net" agent="Mozilla/5.0 (Windows NT 10.0; Win64; x64) AppleWebKit/537.36 (KHTML, like Gecko) Chrome/131.0.0.0 Safari/537.36 Edg/131.0.0.0" version="25.0.3">
  <diagram name="Side-1" id="SAC0o0N5Jtc4WK8K_Qb6">
    <mxGraphModel grid="0" page="0" gridSize="10" guides="1" tooltips="1" connect="1" arrows="1" fold="1" pageScale="1" pageWidth="827" pageHeight="1169" math="0" shadow="0">
      <root>
        <mxCell id="0" />
        <mxCell id="1" parent="0" />
        <mxCell id="kC87kJWcsx4LIT5v7-lI-2" value="" style="shape=table;startSize=0;container=1;collapsible=0;childLayout=tableLayout;fontSize=16;" vertex="1" parent="1">
          <mxGeometry x="350" y="-10" width="120" height="120" as="geometry" />
        </mxCell>
        <mxCell id="kC87kJWcsx4LIT5v7-lI-3" value="" style="shape=tableRow;horizontal=0;startSize=0;swimlaneHead=0;swimlaneBody=0;strokeColor=inherit;top=0;left=0;bottom=0;right=0;collapsible=0;dropTarget=0;fillColor=none;points=[[0,0.5],[1,0.5]];portConstraint=eastwest;fontSize=16;" vertex="1" parent="kC87kJWcsx4LIT5v7-lI-2">
          <mxGeometry width="120" height="40" as="geometry" />
        </mxCell>
        <mxCell id="kC87kJWcsx4LIT5v7-lI-4" value="1/16" style="shape=partialRectangle;html=1;whiteSpace=wrap;connectable=0;strokeColor=inherit;overflow=hidden;fillColor=none;top=0;left=0;bottom=0;right=0;pointerEvents=1;fontSize=16;" vertex="1" parent="kC87kJWcsx4LIT5v7-lI-3">
          <mxGeometry width="39" height="40" as="geometry">
            <mxRectangle width="39" height="40" as="alternateBounds" />
          </mxGeometry>
        </mxCell>
        <mxCell id="kC87kJWcsx4LIT5v7-lI-5" value="2/16" style="shape=partialRectangle;html=1;whiteSpace=wrap;connectable=0;strokeColor=inherit;overflow=hidden;fillColor=none;top=0;left=0;bottom=0;right=0;pointerEvents=1;fontSize=16;" vertex="1" parent="kC87kJWcsx4LIT5v7-lI-3">
          <mxGeometry x="39" width="42" height="40" as="geometry">
            <mxRectangle width="42" height="40" as="alternateBounds" />
          </mxGeometry>
        </mxCell>
        <mxCell id="kC87kJWcsx4LIT5v7-lI-6" value="1/16" style="shape=partialRectangle;html=1;whiteSpace=wrap;connectable=0;strokeColor=inherit;overflow=hidden;fillColor=none;top=0;left=0;bottom=0;right=0;pointerEvents=1;fontSize=16;" vertex="1" parent="kC87kJWcsx4LIT5v7-lI-3">
          <mxGeometry x="81" width="39" height="40" as="geometry">
            <mxRectangle width="39" height="40" as="alternateBounds" />
          </mxGeometry>
        </mxCell>
        <mxCell id="kC87kJWcsx4LIT5v7-lI-7" value="" style="shape=tableRow;horizontal=0;startSize=0;swimlaneHead=0;swimlaneBody=0;strokeColor=inherit;top=0;left=0;bottom=0;right=0;collapsible=0;dropTarget=0;fillColor=none;points=[[0,0.5],[1,0.5]];portConstraint=eastwest;fontSize=16;" vertex="1" parent="kC87kJWcsx4LIT5v7-lI-2">
          <mxGeometry y="40" width="120" height="40" as="geometry" />
        </mxCell>
        <mxCell id="kC87kJWcsx4LIT5v7-lI-8" value="2/16" style="shape=partialRectangle;html=1;whiteSpace=wrap;connectable=0;strokeColor=inherit;overflow=hidden;fillColor=none;top=0;left=0;bottom=0;right=0;pointerEvents=1;fontSize=16;" vertex="1" parent="kC87kJWcsx4LIT5v7-lI-7">
          <mxGeometry width="39" height="40" as="geometry">
            <mxRectangle width="39" height="40" as="alternateBounds" />
          </mxGeometry>
        </mxCell>
        <mxCell id="kC87kJWcsx4LIT5v7-lI-9" value="4/16" style="shape=partialRectangle;html=1;whiteSpace=wrap;connectable=0;strokeColor=inherit;overflow=hidden;fillColor=none;top=0;left=0;bottom=0;right=0;pointerEvents=1;fontSize=16;" vertex="1" parent="kC87kJWcsx4LIT5v7-lI-7">
          <mxGeometry x="39" width="42" height="40" as="geometry">
            <mxRectangle width="42" height="40" as="alternateBounds" />
          </mxGeometry>
        </mxCell>
        <mxCell id="kC87kJWcsx4LIT5v7-lI-10" value="2/16" style="shape=partialRectangle;html=1;whiteSpace=wrap;connectable=0;strokeColor=inherit;overflow=hidden;fillColor=none;top=0;left=0;bottom=0;right=0;pointerEvents=1;fontSize=16;" vertex="1" parent="kC87kJWcsx4LIT5v7-lI-7">
          <mxGeometry x="81" width="39" height="40" as="geometry">
            <mxRectangle width="39" height="40" as="alternateBounds" />
          </mxGeometry>
        </mxCell>
        <mxCell id="kC87kJWcsx4LIT5v7-lI-11" value="" style="shape=tableRow;horizontal=0;startSize=0;swimlaneHead=0;swimlaneBody=0;strokeColor=inherit;top=0;left=0;bottom=0;right=0;collapsible=0;dropTarget=0;fillColor=none;points=[[0,0.5],[1,0.5]];portConstraint=eastwest;fontSize=16;" vertex="1" parent="kC87kJWcsx4LIT5v7-lI-2">
          <mxGeometry y="80" width="120" height="40" as="geometry" />
        </mxCell>
        <mxCell id="kC87kJWcsx4LIT5v7-lI-12" value="1/16" style="shape=partialRectangle;html=1;whiteSpace=wrap;connectable=0;strokeColor=inherit;overflow=hidden;fillColor=none;top=0;left=0;bottom=0;right=0;pointerEvents=1;fontSize=16;" vertex="1" parent="kC87kJWcsx4LIT5v7-lI-11">
          <mxGeometry width="39" height="40" as="geometry">
            <mxRectangle width="39" height="40" as="alternateBounds" />
          </mxGeometry>
        </mxCell>
        <mxCell id="kC87kJWcsx4LIT5v7-lI-13" value="2/16" style="shape=partialRectangle;html=1;whiteSpace=wrap;connectable=0;strokeColor=inherit;overflow=hidden;fillColor=none;top=0;left=0;bottom=0;right=0;pointerEvents=1;fontSize=16;" vertex="1" parent="kC87kJWcsx4LIT5v7-lI-11">
          <mxGeometry x="39" width="42" height="40" as="geometry">
            <mxRectangle width="42" height="40" as="alternateBounds" />
          </mxGeometry>
        </mxCell>
        <mxCell id="kC87kJWcsx4LIT5v7-lI-14" value="1/16" style="shape=partialRectangle;html=1;whiteSpace=wrap;connectable=0;strokeColor=inherit;overflow=hidden;fillColor=none;top=0;left=0;bottom=0;right=0;pointerEvents=1;fontSize=16;" vertex="1" parent="kC87kJWcsx4LIT5v7-lI-11">
          <mxGeometry x="81" width="39" height="40" as="geometry">
            <mxRectangle width="39" height="40" as="alternateBounds" />
          </mxGeometry>
        </mxCell>
        <mxCell id="kC87kJWcsx4LIT5v7-lI-15" value="" style="shape=table;startSize=0;container=1;collapsible=0;childLayout=tableLayout;fontSize=16;strokeColor=#000000;" vertex="1" parent="1">
          <mxGeometry x="50" y="40" width="120" height="120" as="geometry" />
        </mxCell>
        <mxCell id="kC87kJWcsx4LIT5v7-lI-16" value="" style="shape=tableRow;horizontal=0;startSize=0;swimlaneHead=0;swimlaneBody=0;strokeColor=inherit;top=0;left=0;bottom=0;right=0;collapsible=0;dropTarget=0;fillColor=none;points=[[0,0.5],[1,0.5]];portConstraint=eastwest;fontSize=16;" vertex="1" parent="kC87kJWcsx4LIT5v7-lI-15">
          <mxGeometry width="120" height="40" as="geometry" />
        </mxCell>
        <mxCell id="kC87kJWcsx4LIT5v7-lI-17" value="2" style="shape=partialRectangle;html=1;whiteSpace=wrap;connectable=0;strokeColor=inherit;overflow=hidden;fillColor=none;top=0;left=0;bottom=0;right=0;pointerEvents=1;fontSize=16;" vertex="1" parent="kC87kJWcsx4LIT5v7-lI-16">
          <mxGeometry width="39" height="40" as="geometry">
            <mxRectangle width="39" height="40" as="alternateBounds" />
          </mxGeometry>
        </mxCell>
        <mxCell id="kC87kJWcsx4LIT5v7-lI-18" value="1" style="shape=partialRectangle;html=1;whiteSpace=wrap;connectable=0;strokeColor=inherit;overflow=hidden;fillColor=none;top=0;left=0;bottom=0;right=0;pointerEvents=1;fontSize=16;" vertex="1" parent="kC87kJWcsx4LIT5v7-lI-16">
          <mxGeometry x="39" width="42" height="40" as="geometry">
            <mxRectangle width="42" height="40" as="alternateBounds" />
          </mxGeometry>
        </mxCell>
        <mxCell id="kC87kJWcsx4LIT5v7-lI-19" value="0" style="shape=partialRectangle;html=1;whiteSpace=wrap;connectable=0;strokeColor=inherit;overflow=hidden;fillColor=none;top=0;left=0;bottom=0;right=0;pointerEvents=1;fontSize=16;" vertex="1" parent="kC87kJWcsx4LIT5v7-lI-16">
          <mxGeometry x="81" width="39" height="40" as="geometry">
            <mxRectangle width="39" height="40" as="alternateBounds" />
          </mxGeometry>
        </mxCell>
        <mxCell id="kC87kJWcsx4LIT5v7-lI-20" value="" style="shape=tableRow;horizontal=0;startSize=0;swimlaneHead=0;swimlaneBody=0;strokeColor=inherit;top=0;left=0;bottom=0;right=0;collapsible=0;dropTarget=0;fillColor=none;points=[[0,0.5],[1,0.5]];portConstraint=eastwest;fontSize=16;" vertex="1" parent="kC87kJWcsx4LIT5v7-lI-15">
          <mxGeometry y="40" width="120" height="40" as="geometry" />
        </mxCell>
        <mxCell id="kC87kJWcsx4LIT5v7-lI-21" value="2" style="shape=partialRectangle;html=1;whiteSpace=wrap;connectable=0;strokeColor=inherit;overflow=hidden;fillColor=none;top=0;left=0;bottom=0;right=0;pointerEvents=1;fontSize=16;" vertex="1" parent="kC87kJWcsx4LIT5v7-lI-20">
          <mxGeometry width="39" height="40" as="geometry">
            <mxRectangle width="39" height="40" as="alternateBounds" />
          </mxGeometry>
        </mxCell>
        <mxCell id="kC87kJWcsx4LIT5v7-lI-22" value="7" style="shape=partialRectangle;html=1;whiteSpace=wrap;connectable=0;strokeColor=inherit;overflow=hidden;fillColor=none;top=0;left=0;bottom=0;right=0;pointerEvents=1;fontSize=16;" vertex="1" parent="kC87kJWcsx4LIT5v7-lI-20">
          <mxGeometry x="39" width="42" height="40" as="geometry">
            <mxRectangle width="42" height="40" as="alternateBounds" />
          </mxGeometry>
        </mxCell>
        <mxCell id="kC87kJWcsx4LIT5v7-lI-23" value="4" style="shape=partialRectangle;html=1;whiteSpace=wrap;connectable=0;strokeColor=inherit;overflow=hidden;fillColor=none;top=0;left=0;bottom=0;right=0;pointerEvents=1;fontSize=16;" vertex="1" parent="kC87kJWcsx4LIT5v7-lI-20">
          <mxGeometry x="81" width="39" height="40" as="geometry">
            <mxRectangle width="39" height="40" as="alternateBounds" />
          </mxGeometry>
        </mxCell>
        <mxCell id="kC87kJWcsx4LIT5v7-lI-24" value="" style="shape=tableRow;horizontal=0;startSize=0;swimlaneHead=0;swimlaneBody=0;strokeColor=inherit;top=0;left=0;bottom=0;right=0;collapsible=0;dropTarget=0;fillColor=none;points=[[0,0.5],[1,0.5]];portConstraint=eastwest;fontSize=16;" vertex="1" parent="kC87kJWcsx4LIT5v7-lI-15">
          <mxGeometry y="80" width="120" height="40" as="geometry" />
        </mxCell>
        <mxCell id="kC87kJWcsx4LIT5v7-lI-25" value="1" style="shape=partialRectangle;html=1;whiteSpace=wrap;connectable=0;strokeColor=inherit;overflow=hidden;fillColor=none;top=0;left=0;bottom=0;right=0;pointerEvents=1;fontSize=16;" vertex="1" parent="kC87kJWcsx4LIT5v7-lI-24">
          <mxGeometry width="39" height="40" as="geometry">
            <mxRectangle width="39" height="40" as="alternateBounds" />
          </mxGeometry>
        </mxCell>
        <mxCell id="kC87kJWcsx4LIT5v7-lI-26" value="3" style="shape=partialRectangle;html=1;whiteSpace=wrap;connectable=0;strokeColor=inherit;overflow=hidden;fillColor=none;top=0;left=0;bottom=0;right=0;pointerEvents=1;fontSize=16;" vertex="1" parent="kC87kJWcsx4LIT5v7-lI-24">
          <mxGeometry x="39" width="42" height="40" as="geometry">
            <mxRectangle width="42" height="40" as="alternateBounds" />
          </mxGeometry>
        </mxCell>
        <mxCell id="kC87kJWcsx4LIT5v7-lI-27" value="-3" style="shape=partialRectangle;html=1;whiteSpace=wrap;connectable=0;strokeColor=inherit;overflow=hidden;fillColor=none;top=0;left=0;bottom=0;right=0;pointerEvents=1;fontSize=16;" vertex="1" parent="kC87kJWcsx4LIT5v7-lI-24">
          <mxGeometry x="81" width="39" height="40" as="geometry">
            <mxRectangle width="39" height="40" as="alternateBounds" />
          </mxGeometry>
        </mxCell>
        <mxCell id="kC87kJWcsx4LIT5v7-lI-28" value="" style="shape=table;startSize=0;container=1;collapsible=0;childLayout=tableLayout;fontSize=16;" vertex="1" parent="1">
          <mxGeometry x="170" y="40" width="120" height="120" as="geometry" />
        </mxCell>
        <mxCell id="kC87kJWcsx4LIT5v7-lI-29" value="" style="shape=tableRow;horizontal=0;startSize=0;swimlaneHead=0;swimlaneBody=0;strokeColor=inherit;top=0;left=0;bottom=0;right=0;collapsible=0;dropTarget=0;fillColor=none;points=[[0,0.5],[1,0.5]];portConstraint=eastwest;fontSize=16;" vertex="1" parent="kC87kJWcsx4LIT5v7-lI-28">
          <mxGeometry width="120" height="40" as="geometry" />
        </mxCell>
        <mxCell id="kC87kJWcsx4LIT5v7-lI-30" value="0" style="shape=partialRectangle;html=1;whiteSpace=wrap;connectable=0;strokeColor=inherit;overflow=hidden;fillColor=none;top=0;left=0;bottom=0;right=0;pointerEvents=1;fontSize=16;" vertex="1" parent="kC87kJWcsx4LIT5v7-lI-29">
          <mxGeometry width="39" height="40" as="geometry">
            <mxRectangle width="39" height="40" as="alternateBounds" />
          </mxGeometry>
        </mxCell>
        <mxCell id="kC87kJWcsx4LIT5v7-lI-31" value="0" style="shape=partialRectangle;html=1;whiteSpace=wrap;connectable=0;strokeColor=inherit;overflow=hidden;fillColor=none;top=0;left=0;bottom=0;right=0;pointerEvents=1;fontSize=16;" vertex="1" parent="kC87kJWcsx4LIT5v7-lI-29">
          <mxGeometry x="39" width="42" height="40" as="geometry">
            <mxRectangle width="42" height="40" as="alternateBounds" />
          </mxGeometry>
        </mxCell>
        <mxCell id="kC87kJWcsx4LIT5v7-lI-32" value="3" style="shape=partialRectangle;html=1;whiteSpace=wrap;connectable=0;strokeColor=inherit;overflow=hidden;fillColor=none;top=0;left=0;bottom=0;right=0;pointerEvents=1;fontSize=16;" vertex="1" parent="kC87kJWcsx4LIT5v7-lI-29">
          <mxGeometry x="81" width="39" height="40" as="geometry">
            <mxRectangle width="39" height="40" as="alternateBounds" />
          </mxGeometry>
        </mxCell>
        <mxCell id="kC87kJWcsx4LIT5v7-lI-33" value="" style="shape=tableRow;horizontal=0;startSize=0;swimlaneHead=0;swimlaneBody=0;strokeColor=inherit;top=0;left=0;bottom=0;right=0;collapsible=0;dropTarget=0;fillColor=none;points=[[0,0.5],[1,0.5]];portConstraint=eastwest;fontSize=16;" vertex="1" parent="kC87kJWcsx4LIT5v7-lI-28">
          <mxGeometry y="40" width="120" height="40" as="geometry" />
        </mxCell>
        <mxCell id="kC87kJWcsx4LIT5v7-lI-34" value="1" style="shape=partialRectangle;html=1;whiteSpace=wrap;connectable=0;strokeColor=inherit;overflow=hidden;fillColor=none;top=0;left=0;bottom=0;right=0;pointerEvents=1;fontSize=16;" vertex="1" parent="kC87kJWcsx4LIT5v7-lI-33">
          <mxGeometry width="39" height="40" as="geometry">
            <mxRectangle width="39" height="40" as="alternateBounds" />
          </mxGeometry>
        </mxCell>
        <mxCell id="kC87kJWcsx4LIT5v7-lI-35" value="4" style="shape=partialRectangle;html=1;whiteSpace=wrap;connectable=0;strokeColor=inherit;overflow=hidden;fillColor=none;top=0;left=0;bottom=0;right=0;pointerEvents=1;fontSize=16;" vertex="1" parent="kC87kJWcsx4LIT5v7-lI-33">
          <mxGeometry x="39" width="42" height="40" as="geometry">
            <mxRectangle width="42" height="40" as="alternateBounds" />
          </mxGeometry>
        </mxCell>
        <mxCell id="kC87kJWcsx4LIT5v7-lI-36" value="2" style="shape=partialRectangle;html=1;whiteSpace=wrap;connectable=0;strokeColor=inherit;overflow=hidden;fillColor=none;top=0;left=0;bottom=0;right=0;pointerEvents=1;fontSize=16;" vertex="1" parent="kC87kJWcsx4LIT5v7-lI-33">
          <mxGeometry x="81" width="39" height="40" as="geometry">
            <mxRectangle width="39" height="40" as="alternateBounds" />
          </mxGeometry>
        </mxCell>
        <mxCell id="kC87kJWcsx4LIT5v7-lI-37" value="" style="shape=tableRow;horizontal=0;startSize=0;swimlaneHead=0;swimlaneBody=0;strokeColor=inherit;top=0;left=0;bottom=0;right=0;collapsible=0;dropTarget=0;fillColor=none;points=[[0,0.5],[1,0.5]];portConstraint=eastwest;fontSize=16;" vertex="1" parent="kC87kJWcsx4LIT5v7-lI-28">
          <mxGeometry y="80" width="120" height="40" as="geometry" />
        </mxCell>
        <mxCell id="kC87kJWcsx4LIT5v7-lI-38" value="-1" style="shape=partialRectangle;html=1;whiteSpace=wrap;connectable=0;strokeColor=inherit;overflow=hidden;fillColor=none;top=0;left=0;bottom=0;right=0;pointerEvents=1;fontSize=16;" vertex="1" parent="kC87kJWcsx4LIT5v7-lI-37">
          <mxGeometry width="39" height="40" as="geometry">
            <mxRectangle width="39" height="40" as="alternateBounds" />
          </mxGeometry>
        </mxCell>
        <mxCell id="kC87kJWcsx4LIT5v7-lI-39" value="-2" style="shape=partialRectangle;html=1;whiteSpace=wrap;connectable=0;strokeColor=inherit;overflow=hidden;fillColor=none;top=0;left=0;bottom=0;right=0;pointerEvents=1;fontSize=16;" vertex="1" parent="kC87kJWcsx4LIT5v7-lI-37">
          <mxGeometry x="39" width="42" height="40" as="geometry">
            <mxRectangle width="42" height="40" as="alternateBounds" />
          </mxGeometry>
        </mxCell>
        <mxCell id="kC87kJWcsx4LIT5v7-lI-40" value="-3" style="shape=partialRectangle;html=1;whiteSpace=wrap;connectable=0;strokeColor=inherit;overflow=hidden;fillColor=none;top=0;left=0;bottom=0;right=0;pointerEvents=1;fontSize=16;" vertex="1" parent="kC87kJWcsx4LIT5v7-lI-37">
          <mxGeometry x="81" width="39" height="40" as="geometry">
            <mxRectangle width="39" height="40" as="alternateBounds" />
          </mxGeometry>
        </mxCell>
        <mxCell id="kC87kJWcsx4LIT5v7-lI-41" value="" style="shape=table;startSize=0;container=1;collapsible=0;childLayout=tableLayout;fontSize=16;" vertex="1" parent="1">
          <mxGeometry x="50" y="160" width="120" height="120" as="geometry" />
        </mxCell>
        <mxCell id="kC87kJWcsx4LIT5v7-lI-42" value="" style="shape=tableRow;horizontal=0;startSize=0;swimlaneHead=0;swimlaneBody=0;strokeColor=inherit;top=0;left=0;bottom=0;right=0;collapsible=0;dropTarget=0;fillColor=none;points=[[0,0.5],[1,0.5]];portConstraint=eastwest;fontSize=16;" vertex="1" parent="kC87kJWcsx4LIT5v7-lI-41">
          <mxGeometry width="120" height="40" as="geometry" />
        </mxCell>
        <mxCell id="kC87kJWcsx4LIT5v7-lI-43" value="1" style="shape=partialRectangle;html=1;whiteSpace=wrap;connectable=0;strokeColor=inherit;overflow=hidden;fillColor=none;top=0;left=0;bottom=0;right=0;pointerEvents=1;fontSize=16;" vertex="1" parent="kC87kJWcsx4LIT5v7-lI-42">
          <mxGeometry width="39" height="40" as="geometry">
            <mxRectangle width="39" height="40" as="alternateBounds" />
          </mxGeometry>
        </mxCell>
        <mxCell id="kC87kJWcsx4LIT5v7-lI-44" value="2" style="shape=partialRectangle;html=1;whiteSpace=wrap;connectable=0;strokeColor=inherit;overflow=hidden;fillColor=none;top=0;left=0;bottom=0;right=0;pointerEvents=1;fontSize=16;" vertex="1" parent="kC87kJWcsx4LIT5v7-lI-42">
          <mxGeometry x="39" width="42" height="40" as="geometry">
            <mxRectangle width="42" height="40" as="alternateBounds" />
          </mxGeometry>
        </mxCell>
        <mxCell id="kC87kJWcsx4LIT5v7-lI-45" value="3" style="shape=partialRectangle;html=1;whiteSpace=wrap;connectable=0;strokeColor=inherit;overflow=hidden;fillColor=none;top=0;left=0;bottom=0;right=0;pointerEvents=1;fontSize=16;" vertex="1" parent="kC87kJWcsx4LIT5v7-lI-42">
          <mxGeometry x="81" width="39" height="40" as="geometry">
            <mxRectangle width="39" height="40" as="alternateBounds" />
          </mxGeometry>
        </mxCell>
        <mxCell id="kC87kJWcsx4LIT5v7-lI-46" value="" style="shape=tableRow;horizontal=0;startSize=0;swimlaneHead=0;swimlaneBody=0;strokeColor=inherit;top=0;left=0;bottom=0;right=0;collapsible=0;dropTarget=0;fillColor=none;points=[[0,0.5],[1,0.5]];portConstraint=eastwest;fontSize=16;" vertex="1" parent="kC87kJWcsx4LIT5v7-lI-41">
          <mxGeometry y="40" width="120" height="40" as="geometry" />
        </mxCell>
        <mxCell id="kC87kJWcsx4LIT5v7-lI-47" value="2" style="shape=partialRectangle;html=1;whiteSpace=wrap;connectable=0;strokeColor=inherit;overflow=hidden;fillColor=none;top=0;left=0;bottom=0;right=0;pointerEvents=1;fontSize=16;" vertex="1" parent="kC87kJWcsx4LIT5v7-lI-46">
          <mxGeometry width="39" height="40" as="geometry">
            <mxRectangle width="39" height="40" as="alternateBounds" />
          </mxGeometry>
        </mxCell>
        <mxCell id="kC87kJWcsx4LIT5v7-lI-48" value="4" style="shape=partialRectangle;html=1;whiteSpace=wrap;connectable=0;strokeColor=inherit;overflow=hidden;fillColor=none;top=0;left=0;bottom=0;right=0;pointerEvents=1;fontSize=16;" vertex="1" parent="kC87kJWcsx4LIT5v7-lI-46">
          <mxGeometry x="39" width="42" height="40" as="geometry">
            <mxRectangle width="42" height="40" as="alternateBounds" />
          </mxGeometry>
        </mxCell>
        <mxCell id="kC87kJWcsx4LIT5v7-lI-49" value="2" style="shape=partialRectangle;html=1;whiteSpace=wrap;connectable=0;strokeColor=inherit;overflow=hidden;fillColor=none;top=0;left=0;bottom=0;right=0;pointerEvents=1;fontSize=16;" vertex="1" parent="kC87kJWcsx4LIT5v7-lI-46">
          <mxGeometry x="81" width="39" height="40" as="geometry">
            <mxRectangle width="39" height="40" as="alternateBounds" />
          </mxGeometry>
        </mxCell>
        <mxCell id="kC87kJWcsx4LIT5v7-lI-50" value="" style="shape=tableRow;horizontal=0;startSize=0;swimlaneHead=0;swimlaneBody=0;strokeColor=inherit;top=0;left=0;bottom=0;right=0;collapsible=0;dropTarget=0;fillColor=none;points=[[0,0.5],[1,0.5]];portConstraint=eastwest;fontSize=16;" vertex="1" parent="kC87kJWcsx4LIT5v7-lI-41">
          <mxGeometry y="80" width="120" height="40" as="geometry" />
        </mxCell>
        <mxCell id="kC87kJWcsx4LIT5v7-lI-51" value="-1" style="shape=partialRectangle;html=1;whiteSpace=wrap;connectable=0;strokeColor=inherit;overflow=hidden;fillColor=none;top=0;left=0;bottom=0;right=0;pointerEvents=1;fontSize=16;" vertex="1" parent="kC87kJWcsx4LIT5v7-lI-50">
          <mxGeometry width="39" height="40" as="geometry">
            <mxRectangle width="39" height="40" as="alternateBounds" />
          </mxGeometry>
        </mxCell>
        <mxCell id="kC87kJWcsx4LIT5v7-lI-52" value="-2" style="shape=partialRectangle;html=1;whiteSpace=wrap;connectable=0;strokeColor=inherit;overflow=hidden;fillColor=none;top=0;left=0;bottom=0;right=0;pointerEvents=1;fontSize=16;" vertex="1" parent="kC87kJWcsx4LIT5v7-lI-50">
          <mxGeometry x="39" width="42" height="40" as="geometry">
            <mxRectangle width="42" height="40" as="alternateBounds" />
          </mxGeometry>
        </mxCell>
        <mxCell id="kC87kJWcsx4LIT5v7-lI-53" value="-3" style="shape=partialRectangle;html=1;whiteSpace=wrap;connectable=0;strokeColor=inherit;overflow=hidden;fillColor=none;top=0;left=0;bottom=0;right=0;pointerEvents=1;fontSize=16;" vertex="1" parent="kC87kJWcsx4LIT5v7-lI-50">
          <mxGeometry x="81" width="39" height="40" as="geometry">
            <mxRectangle width="39" height="40" as="alternateBounds" />
          </mxGeometry>
        </mxCell>
        <mxCell id="kC87kJWcsx4LIT5v7-lI-54" value="" style="shape=table;startSize=0;container=1;collapsible=0;childLayout=tableLayout;fontSize=16;" vertex="1" parent="1">
          <mxGeometry x="170" y="160" width="120" height="120" as="geometry" />
        </mxCell>
        <mxCell id="kC87kJWcsx4LIT5v7-lI-55" value="" style="shape=tableRow;horizontal=0;startSize=0;swimlaneHead=0;swimlaneBody=0;strokeColor=inherit;top=0;left=0;bottom=0;right=0;collapsible=0;dropTarget=0;fillColor=none;points=[[0,0.5],[1,0.5]];portConstraint=eastwest;fontSize=16;" vertex="1" parent="kC87kJWcsx4LIT5v7-lI-54">
          <mxGeometry width="120" height="40" as="geometry" />
        </mxCell>
        <mxCell id="kC87kJWcsx4LIT5v7-lI-56" value="1" style="shape=partialRectangle;html=1;whiteSpace=wrap;connectable=0;strokeColor=inherit;overflow=hidden;fillColor=none;top=0;left=0;bottom=0;right=0;pointerEvents=1;fontSize=16;" vertex="1" parent="kC87kJWcsx4LIT5v7-lI-55">
          <mxGeometry width="39" height="40" as="geometry">
            <mxRectangle width="39" height="40" as="alternateBounds" />
          </mxGeometry>
        </mxCell>
        <mxCell id="kC87kJWcsx4LIT5v7-lI-57" value="2" style="shape=partialRectangle;html=1;whiteSpace=wrap;connectable=0;strokeColor=inherit;overflow=hidden;fillColor=none;top=0;left=0;bottom=0;right=0;pointerEvents=1;fontSize=16;" vertex="1" parent="kC87kJWcsx4LIT5v7-lI-55">
          <mxGeometry x="39" width="42" height="40" as="geometry">
            <mxRectangle width="42" height="40" as="alternateBounds" />
          </mxGeometry>
        </mxCell>
        <mxCell id="kC87kJWcsx4LIT5v7-lI-58" value="3" style="shape=partialRectangle;html=1;whiteSpace=wrap;connectable=0;strokeColor=inherit;overflow=hidden;fillColor=none;top=0;left=0;bottom=0;right=0;pointerEvents=1;fontSize=16;" vertex="1" parent="kC87kJWcsx4LIT5v7-lI-55">
          <mxGeometry x="81" width="39" height="40" as="geometry">
            <mxRectangle width="39" height="40" as="alternateBounds" />
          </mxGeometry>
        </mxCell>
        <mxCell id="kC87kJWcsx4LIT5v7-lI-59" value="" style="shape=tableRow;horizontal=0;startSize=0;swimlaneHead=0;swimlaneBody=0;strokeColor=inherit;top=0;left=0;bottom=0;right=0;collapsible=0;dropTarget=0;fillColor=none;points=[[0,0.5],[1,0.5]];portConstraint=eastwest;fontSize=16;" vertex="1" parent="kC87kJWcsx4LIT5v7-lI-54">
          <mxGeometry y="40" width="120" height="40" as="geometry" />
        </mxCell>
        <mxCell id="kC87kJWcsx4LIT5v7-lI-60" value="2" style="shape=partialRectangle;html=1;whiteSpace=wrap;connectable=0;strokeColor=inherit;overflow=hidden;fillColor=none;top=0;left=0;bottom=0;right=0;pointerEvents=1;fontSize=16;" vertex="1" parent="kC87kJWcsx4LIT5v7-lI-59">
          <mxGeometry width="39" height="40" as="geometry">
            <mxRectangle width="39" height="40" as="alternateBounds" />
          </mxGeometry>
        </mxCell>
        <mxCell id="kC87kJWcsx4LIT5v7-lI-61" value="4" style="shape=partialRectangle;html=1;whiteSpace=wrap;connectable=0;strokeColor=inherit;overflow=hidden;fillColor=none;top=0;left=0;bottom=0;right=0;pointerEvents=1;fontSize=16;" vertex="1" parent="kC87kJWcsx4LIT5v7-lI-59">
          <mxGeometry x="39" width="42" height="40" as="geometry">
            <mxRectangle width="42" height="40" as="alternateBounds" />
          </mxGeometry>
        </mxCell>
        <mxCell id="kC87kJWcsx4LIT5v7-lI-62" value="2" style="shape=partialRectangle;html=1;whiteSpace=wrap;connectable=0;strokeColor=inherit;overflow=hidden;fillColor=none;top=0;left=0;bottom=0;right=0;pointerEvents=1;fontSize=16;" vertex="1" parent="kC87kJWcsx4LIT5v7-lI-59">
          <mxGeometry x="81" width="39" height="40" as="geometry">
            <mxRectangle width="39" height="40" as="alternateBounds" />
          </mxGeometry>
        </mxCell>
        <mxCell id="kC87kJWcsx4LIT5v7-lI-63" value="" style="shape=tableRow;horizontal=0;startSize=0;swimlaneHead=0;swimlaneBody=0;strokeColor=inherit;top=0;left=0;bottom=0;right=0;collapsible=0;dropTarget=0;fillColor=none;points=[[0,0.5],[1,0.5]];portConstraint=eastwest;fontSize=16;" vertex="1" parent="kC87kJWcsx4LIT5v7-lI-54">
          <mxGeometry y="80" width="120" height="40" as="geometry" />
        </mxCell>
        <mxCell id="kC87kJWcsx4LIT5v7-lI-64" value="-1" style="shape=partialRectangle;html=1;whiteSpace=wrap;connectable=0;strokeColor=inherit;overflow=hidden;fillColor=none;top=0;left=0;bottom=0;right=0;pointerEvents=1;fontSize=16;" vertex="1" parent="kC87kJWcsx4LIT5v7-lI-63">
          <mxGeometry width="39" height="40" as="geometry">
            <mxRectangle width="39" height="40" as="alternateBounds" />
          </mxGeometry>
        </mxCell>
        <mxCell id="kC87kJWcsx4LIT5v7-lI-65" value="-2" style="shape=partialRectangle;html=1;whiteSpace=wrap;connectable=0;strokeColor=inherit;overflow=hidden;fillColor=none;top=0;left=0;bottom=0;right=0;pointerEvents=1;fontSize=16;" vertex="1" parent="kC87kJWcsx4LIT5v7-lI-63">
          <mxGeometry x="39" width="42" height="40" as="geometry">
            <mxRectangle width="42" height="40" as="alternateBounds" />
          </mxGeometry>
        </mxCell>
        <mxCell id="kC87kJWcsx4LIT5v7-lI-66" value="-3" style="shape=partialRectangle;html=1;whiteSpace=wrap;connectable=0;strokeColor=inherit;overflow=hidden;fillColor=none;top=0;left=0;bottom=0;right=0;pointerEvents=1;fontSize=16;" vertex="1" parent="kC87kJWcsx4LIT5v7-lI-63">
          <mxGeometry x="81" width="39" height="40" as="geometry">
            <mxRectangle width="39" height="40" as="alternateBounds" />
          </mxGeometry>
        </mxCell>
        <mxCell id="kC87kJWcsx4LIT5v7-lI-67" value="" style="whiteSpace=wrap;html=1;aspect=fixed;fillColor=none;strokeColor=#FF0000;strokeWidth=5;" vertex="1" parent="1">
          <mxGeometry x="50" y="40" width="120" height="120" as="geometry" />
        </mxCell>
        <mxCell id="kC87kJWcsx4LIT5v7-lI-68" style="edgeStyle=none;rounded=0;orthogonalLoop=1;jettySize=auto;html=1;entryX=0;entryY=0.5;entryDx=0;entryDy=0;endArrow=classic;endFill=1;dashed=1;strokeColor=#FF0000;strokeWidth=4;exitX=1;exitY=0.5;exitDx=0;exitDy=0;" edge="1" parent="1" source="kC87kJWcsx4LIT5v7-lI-67" target="kC87kJWcsx4LIT5v7-lI-7">
          <mxGeometry relative="1" as="geometry">
            <mxPoint x="50" y="30" as="sourcePoint" />
          </mxGeometry>
        </mxCell>
        <mxCell id="kC87kJWcsx4LIT5v7-lI-70" value="" style="shape=table;startSize=0;container=1;collapsible=0;childLayout=tableLayout;fontSize=16;strokeColor=#000000;" vertex="1" parent="1">
          <mxGeometry x="560" y="40" width="120" height="120" as="geometry" />
        </mxCell>
        <mxCell id="kC87kJWcsx4LIT5v7-lI-71" value="" style="shape=tableRow;horizontal=0;startSize=0;swimlaneHead=0;swimlaneBody=0;strokeColor=inherit;top=0;left=0;bottom=0;right=0;collapsible=0;dropTarget=0;fillColor=none;points=[[0,0.5],[1,0.5]];portConstraint=eastwest;fontSize=16;" vertex="1" parent="kC87kJWcsx4LIT5v7-lI-70">
          <mxGeometry width="120" height="40" as="geometry" />
        </mxCell>
        <mxCell id="kC87kJWcsx4LIT5v7-lI-72" value="" style="shape=partialRectangle;html=1;whiteSpace=wrap;connectable=0;strokeColor=inherit;overflow=hidden;fillColor=none;top=0;left=0;bottom=0;right=0;pointerEvents=1;fontSize=16;" vertex="1" parent="kC87kJWcsx4LIT5v7-lI-71">
          <mxGeometry width="39" height="40" as="geometry">
            <mxRectangle width="39" height="40" as="alternateBounds" />
          </mxGeometry>
        </mxCell>
        <mxCell id="kC87kJWcsx4LIT5v7-lI-73" value="" style="shape=partialRectangle;html=1;whiteSpace=wrap;connectable=0;strokeColor=inherit;overflow=hidden;fillColor=none;top=0;left=0;bottom=0;right=0;pointerEvents=1;fontSize=16;" vertex="1" parent="kC87kJWcsx4LIT5v7-lI-71">
          <mxGeometry x="39" width="42" height="40" as="geometry">
            <mxRectangle width="42" height="40" as="alternateBounds" />
          </mxGeometry>
        </mxCell>
        <mxCell id="kC87kJWcsx4LIT5v7-lI-74" value="" style="shape=partialRectangle;html=1;whiteSpace=wrap;connectable=0;strokeColor=inherit;overflow=hidden;fillColor=none;top=0;left=0;bottom=0;right=0;pointerEvents=1;fontSize=16;" vertex="1" parent="kC87kJWcsx4LIT5v7-lI-71">
          <mxGeometry x="81" width="39" height="40" as="geometry">
            <mxRectangle width="39" height="40" as="alternateBounds" />
          </mxGeometry>
        </mxCell>
        <mxCell id="kC87kJWcsx4LIT5v7-lI-75" value="" style="shape=tableRow;horizontal=0;startSize=0;swimlaneHead=0;swimlaneBody=0;strokeColor=inherit;top=0;left=0;bottom=0;right=0;collapsible=0;dropTarget=0;fillColor=none;points=[[0,0.5],[1,0.5]];portConstraint=eastwest;fontSize=16;" vertex="1" parent="kC87kJWcsx4LIT5v7-lI-70">
          <mxGeometry y="40" width="120" height="40" as="geometry" />
        </mxCell>
        <mxCell id="kC87kJWcsx4LIT5v7-lI-76" value="" style="shape=partialRectangle;html=1;whiteSpace=wrap;connectable=0;strokeColor=inherit;overflow=hidden;fillColor=none;top=0;left=0;bottom=0;right=0;pointerEvents=1;fontSize=16;" vertex="1" parent="kC87kJWcsx4LIT5v7-lI-75">
          <mxGeometry width="39" height="40" as="geometry">
            <mxRectangle width="39" height="40" as="alternateBounds" />
          </mxGeometry>
        </mxCell>
        <mxCell id="kC87kJWcsx4LIT5v7-lI-77" value="3" style="shape=partialRectangle;html=1;whiteSpace=wrap;connectable=0;strokeColor=inherit;overflow=hidden;fillColor=none;top=0;left=0;bottom=0;right=0;pointerEvents=1;fontSize=16;" vertex="1" parent="kC87kJWcsx4LIT5v7-lI-75">
          <mxGeometry x="39" width="42" height="40" as="geometry">
            <mxRectangle width="42" height="40" as="alternateBounds" />
          </mxGeometry>
        </mxCell>
        <mxCell id="kC87kJWcsx4LIT5v7-lI-78" value="" style="shape=partialRectangle;html=1;whiteSpace=wrap;connectable=0;strokeColor=inherit;overflow=hidden;fillColor=none;top=0;left=0;bottom=0;right=0;pointerEvents=1;fontSize=16;" vertex="1" parent="kC87kJWcsx4LIT5v7-lI-75">
          <mxGeometry x="81" width="39" height="40" as="geometry">
            <mxRectangle width="39" height="40" as="alternateBounds" />
          </mxGeometry>
        </mxCell>
        <mxCell id="kC87kJWcsx4LIT5v7-lI-79" value="" style="shape=tableRow;horizontal=0;startSize=0;swimlaneHead=0;swimlaneBody=0;strokeColor=inherit;top=0;left=0;bottom=0;right=0;collapsible=0;dropTarget=0;fillColor=none;points=[[0,0.5],[1,0.5]];portConstraint=eastwest;fontSize=16;" vertex="1" parent="kC87kJWcsx4LIT5v7-lI-70">
          <mxGeometry y="80" width="120" height="40" as="geometry" />
        </mxCell>
        <mxCell id="kC87kJWcsx4LIT5v7-lI-80" value="" style="shape=partialRectangle;html=1;whiteSpace=wrap;connectable=0;strokeColor=inherit;overflow=hidden;fillColor=none;top=0;left=0;bottom=0;right=0;pointerEvents=1;fontSize=16;" vertex="1" parent="kC87kJWcsx4LIT5v7-lI-79">
          <mxGeometry width="39" height="40" as="geometry">
            <mxRectangle width="39" height="40" as="alternateBounds" />
          </mxGeometry>
        </mxCell>
        <mxCell id="kC87kJWcsx4LIT5v7-lI-81" value="" style="shape=partialRectangle;html=1;whiteSpace=wrap;connectable=0;strokeColor=inherit;overflow=hidden;fillColor=none;top=0;left=0;bottom=0;right=0;pointerEvents=1;fontSize=16;" vertex="1" parent="kC87kJWcsx4LIT5v7-lI-79">
          <mxGeometry x="39" width="42" height="40" as="geometry">
            <mxRectangle width="42" height="40" as="alternateBounds" />
          </mxGeometry>
        </mxCell>
        <mxCell id="kC87kJWcsx4LIT5v7-lI-82" value="" style="shape=partialRectangle;html=1;whiteSpace=wrap;connectable=0;strokeColor=inherit;overflow=hidden;fillColor=none;top=0;left=0;bottom=0;right=0;pointerEvents=1;fontSize=16;" vertex="1" parent="kC87kJWcsx4LIT5v7-lI-79">
          <mxGeometry x="81" width="39" height="40" as="geometry">
            <mxRectangle width="39" height="40" as="alternateBounds" />
          </mxGeometry>
        </mxCell>
        <mxCell id="kC87kJWcsx4LIT5v7-lI-83" value="" style="shape=table;startSize=0;container=1;collapsible=0;childLayout=tableLayout;fontSize=16;" vertex="1" parent="1">
          <mxGeometry x="680" y="40" width="120" height="120" as="geometry" />
        </mxCell>
        <mxCell id="kC87kJWcsx4LIT5v7-lI-84" value="" style="shape=tableRow;horizontal=0;startSize=0;swimlaneHead=0;swimlaneBody=0;strokeColor=inherit;top=0;left=0;bottom=0;right=0;collapsible=0;dropTarget=0;fillColor=none;points=[[0,0.5],[1,0.5]];portConstraint=eastwest;fontSize=16;" vertex="1" parent="kC87kJWcsx4LIT5v7-lI-83">
          <mxGeometry width="120" height="40" as="geometry" />
        </mxCell>
        <mxCell id="kC87kJWcsx4LIT5v7-lI-85" value="" style="shape=partialRectangle;html=1;whiteSpace=wrap;connectable=0;strokeColor=inherit;overflow=hidden;fillColor=none;top=0;left=0;bottom=0;right=0;pointerEvents=1;fontSize=16;" vertex="1" parent="kC87kJWcsx4LIT5v7-lI-84">
          <mxGeometry width="39" height="40" as="geometry">
            <mxRectangle width="39" height="40" as="alternateBounds" />
          </mxGeometry>
        </mxCell>
        <mxCell id="kC87kJWcsx4LIT5v7-lI-86" value="" style="shape=partialRectangle;html=1;whiteSpace=wrap;connectable=0;strokeColor=inherit;overflow=hidden;fillColor=none;top=0;left=0;bottom=0;right=0;pointerEvents=1;fontSize=16;" vertex="1" parent="kC87kJWcsx4LIT5v7-lI-84">
          <mxGeometry x="39" width="42" height="40" as="geometry">
            <mxRectangle width="42" height="40" as="alternateBounds" />
          </mxGeometry>
        </mxCell>
        <mxCell id="kC87kJWcsx4LIT5v7-lI-87" value="" style="shape=partialRectangle;html=1;whiteSpace=wrap;connectable=0;strokeColor=inherit;overflow=hidden;fillColor=none;top=0;left=0;bottom=0;right=0;pointerEvents=1;fontSize=16;" vertex="1" parent="kC87kJWcsx4LIT5v7-lI-84">
          <mxGeometry x="81" width="39" height="40" as="geometry">
            <mxRectangle width="39" height="40" as="alternateBounds" />
          </mxGeometry>
        </mxCell>
        <mxCell id="kC87kJWcsx4LIT5v7-lI-88" value="" style="shape=tableRow;horizontal=0;startSize=0;swimlaneHead=0;swimlaneBody=0;strokeColor=inherit;top=0;left=0;bottom=0;right=0;collapsible=0;dropTarget=0;fillColor=none;points=[[0,0.5],[1,0.5]];portConstraint=eastwest;fontSize=16;" vertex="1" parent="kC87kJWcsx4LIT5v7-lI-83">
          <mxGeometry y="40" width="120" height="40" as="geometry" />
        </mxCell>
        <mxCell id="kC87kJWcsx4LIT5v7-lI-89" value="" style="shape=partialRectangle;html=1;whiteSpace=wrap;connectable=0;strokeColor=inherit;overflow=hidden;fillColor=none;top=0;left=0;bottom=0;right=0;pointerEvents=1;fontSize=16;" vertex="1" parent="kC87kJWcsx4LIT5v7-lI-88">
          <mxGeometry width="39" height="40" as="geometry">
            <mxRectangle width="39" height="40" as="alternateBounds" />
          </mxGeometry>
        </mxCell>
        <mxCell id="kC87kJWcsx4LIT5v7-lI-90" value="" style="shape=partialRectangle;html=1;whiteSpace=wrap;connectable=0;strokeColor=inherit;overflow=hidden;fillColor=none;top=0;left=0;bottom=0;right=0;pointerEvents=1;fontSize=16;" vertex="1" parent="kC87kJWcsx4LIT5v7-lI-88">
          <mxGeometry x="39" width="42" height="40" as="geometry">
            <mxRectangle width="42" height="40" as="alternateBounds" />
          </mxGeometry>
        </mxCell>
        <mxCell id="kC87kJWcsx4LIT5v7-lI-91" value="" style="shape=partialRectangle;html=1;whiteSpace=wrap;connectable=0;strokeColor=inherit;overflow=hidden;fillColor=none;top=0;left=0;bottom=0;right=0;pointerEvents=1;fontSize=16;" vertex="1" parent="kC87kJWcsx4LIT5v7-lI-88">
          <mxGeometry x="81" width="39" height="40" as="geometry">
            <mxRectangle width="39" height="40" as="alternateBounds" />
          </mxGeometry>
        </mxCell>
        <mxCell id="kC87kJWcsx4LIT5v7-lI-92" value="" style="shape=tableRow;horizontal=0;startSize=0;swimlaneHead=0;swimlaneBody=0;strokeColor=inherit;top=0;left=0;bottom=0;right=0;collapsible=0;dropTarget=0;fillColor=none;points=[[0,0.5],[1,0.5]];portConstraint=eastwest;fontSize=16;" vertex="1" parent="kC87kJWcsx4LIT5v7-lI-83">
          <mxGeometry y="80" width="120" height="40" as="geometry" />
        </mxCell>
        <mxCell id="kC87kJWcsx4LIT5v7-lI-93" value="" style="shape=partialRectangle;html=1;whiteSpace=wrap;connectable=0;strokeColor=inherit;overflow=hidden;fillColor=none;top=0;left=0;bottom=0;right=0;pointerEvents=1;fontSize=16;" vertex="1" parent="kC87kJWcsx4LIT5v7-lI-92">
          <mxGeometry width="39" height="40" as="geometry">
            <mxRectangle width="39" height="40" as="alternateBounds" />
          </mxGeometry>
        </mxCell>
        <mxCell id="kC87kJWcsx4LIT5v7-lI-94" value="" style="shape=partialRectangle;html=1;whiteSpace=wrap;connectable=0;strokeColor=inherit;overflow=hidden;fillColor=none;top=0;left=0;bottom=0;right=0;pointerEvents=1;fontSize=16;" vertex="1" parent="kC87kJWcsx4LIT5v7-lI-92">
          <mxGeometry x="39" width="42" height="40" as="geometry">
            <mxRectangle width="42" height="40" as="alternateBounds" />
          </mxGeometry>
        </mxCell>
        <mxCell id="kC87kJWcsx4LIT5v7-lI-95" value="" style="shape=partialRectangle;html=1;whiteSpace=wrap;connectable=0;strokeColor=inherit;overflow=hidden;fillColor=none;top=0;left=0;bottom=0;right=0;pointerEvents=1;fontSize=16;" vertex="1" parent="kC87kJWcsx4LIT5v7-lI-92">
          <mxGeometry x="81" width="39" height="40" as="geometry">
            <mxRectangle width="39" height="40" as="alternateBounds" />
          </mxGeometry>
        </mxCell>
        <mxCell id="kC87kJWcsx4LIT5v7-lI-96" value="" style="shape=table;startSize=0;container=1;collapsible=0;childLayout=tableLayout;fontSize=16;" vertex="1" parent="1">
          <mxGeometry x="560" y="160" width="120" height="120" as="geometry" />
        </mxCell>
        <mxCell id="kC87kJWcsx4LIT5v7-lI-97" value="" style="shape=tableRow;horizontal=0;startSize=0;swimlaneHead=0;swimlaneBody=0;strokeColor=inherit;top=0;left=0;bottom=0;right=0;collapsible=0;dropTarget=0;fillColor=none;points=[[0,0.5],[1,0.5]];portConstraint=eastwest;fontSize=16;" vertex="1" parent="kC87kJWcsx4LIT5v7-lI-96">
          <mxGeometry width="120" height="40" as="geometry" />
        </mxCell>
        <mxCell id="kC87kJWcsx4LIT5v7-lI-98" value="" style="shape=partialRectangle;html=1;whiteSpace=wrap;connectable=0;strokeColor=inherit;overflow=hidden;fillColor=none;top=0;left=0;bottom=0;right=0;pointerEvents=1;fontSize=16;" vertex="1" parent="kC87kJWcsx4LIT5v7-lI-97">
          <mxGeometry width="39" height="40" as="geometry">
            <mxRectangle width="39" height="40" as="alternateBounds" />
          </mxGeometry>
        </mxCell>
        <mxCell id="kC87kJWcsx4LIT5v7-lI-99" value="" style="shape=partialRectangle;html=1;whiteSpace=wrap;connectable=0;strokeColor=inherit;overflow=hidden;fillColor=none;top=0;left=0;bottom=0;right=0;pointerEvents=1;fontSize=16;" vertex="1" parent="kC87kJWcsx4LIT5v7-lI-97">
          <mxGeometry x="39" width="42" height="40" as="geometry">
            <mxRectangle width="42" height="40" as="alternateBounds" />
          </mxGeometry>
        </mxCell>
        <mxCell id="kC87kJWcsx4LIT5v7-lI-100" value="" style="shape=partialRectangle;html=1;whiteSpace=wrap;connectable=0;strokeColor=inherit;overflow=hidden;fillColor=none;top=0;left=0;bottom=0;right=0;pointerEvents=1;fontSize=16;" vertex="1" parent="kC87kJWcsx4LIT5v7-lI-97">
          <mxGeometry x="81" width="39" height="40" as="geometry">
            <mxRectangle width="39" height="40" as="alternateBounds" />
          </mxGeometry>
        </mxCell>
        <mxCell id="kC87kJWcsx4LIT5v7-lI-101" value="" style="shape=tableRow;horizontal=0;startSize=0;swimlaneHead=0;swimlaneBody=0;strokeColor=inherit;top=0;left=0;bottom=0;right=0;collapsible=0;dropTarget=0;fillColor=none;points=[[0,0.5],[1,0.5]];portConstraint=eastwest;fontSize=16;" vertex="1" parent="kC87kJWcsx4LIT5v7-lI-96">
          <mxGeometry y="40" width="120" height="40" as="geometry" />
        </mxCell>
        <mxCell id="kC87kJWcsx4LIT5v7-lI-102" value="" style="shape=partialRectangle;html=1;whiteSpace=wrap;connectable=0;strokeColor=inherit;overflow=hidden;fillColor=none;top=0;left=0;bottom=0;right=0;pointerEvents=1;fontSize=16;" vertex="1" parent="kC87kJWcsx4LIT5v7-lI-101">
          <mxGeometry width="39" height="40" as="geometry">
            <mxRectangle width="39" height="40" as="alternateBounds" />
          </mxGeometry>
        </mxCell>
        <mxCell id="kC87kJWcsx4LIT5v7-lI-103" value="" style="shape=partialRectangle;html=1;whiteSpace=wrap;connectable=0;strokeColor=inherit;overflow=hidden;fillColor=none;top=0;left=0;bottom=0;right=0;pointerEvents=1;fontSize=16;" vertex="1" parent="kC87kJWcsx4LIT5v7-lI-101">
          <mxGeometry x="39" width="42" height="40" as="geometry">
            <mxRectangle width="42" height="40" as="alternateBounds" />
          </mxGeometry>
        </mxCell>
        <mxCell id="kC87kJWcsx4LIT5v7-lI-104" value="" style="shape=partialRectangle;html=1;whiteSpace=wrap;connectable=0;strokeColor=inherit;overflow=hidden;fillColor=none;top=0;left=0;bottom=0;right=0;pointerEvents=1;fontSize=16;" vertex="1" parent="kC87kJWcsx4LIT5v7-lI-101">
          <mxGeometry x="81" width="39" height="40" as="geometry">
            <mxRectangle width="39" height="40" as="alternateBounds" />
          </mxGeometry>
        </mxCell>
        <mxCell id="kC87kJWcsx4LIT5v7-lI-105" value="" style="shape=tableRow;horizontal=0;startSize=0;swimlaneHead=0;swimlaneBody=0;strokeColor=inherit;top=0;left=0;bottom=0;right=0;collapsible=0;dropTarget=0;fillColor=none;points=[[0,0.5],[1,0.5]];portConstraint=eastwest;fontSize=16;" vertex="1" parent="kC87kJWcsx4LIT5v7-lI-96">
          <mxGeometry y="80" width="120" height="40" as="geometry" />
        </mxCell>
        <mxCell id="kC87kJWcsx4LIT5v7-lI-106" value="" style="shape=partialRectangle;html=1;whiteSpace=wrap;connectable=0;strokeColor=inherit;overflow=hidden;fillColor=none;top=0;left=0;bottom=0;right=0;pointerEvents=1;fontSize=16;" vertex="1" parent="kC87kJWcsx4LIT5v7-lI-105">
          <mxGeometry width="39" height="40" as="geometry">
            <mxRectangle width="39" height="40" as="alternateBounds" />
          </mxGeometry>
        </mxCell>
        <mxCell id="kC87kJWcsx4LIT5v7-lI-107" value="" style="shape=partialRectangle;html=1;whiteSpace=wrap;connectable=0;strokeColor=inherit;overflow=hidden;fillColor=none;top=0;left=0;bottom=0;right=0;pointerEvents=1;fontSize=16;" vertex="1" parent="kC87kJWcsx4LIT5v7-lI-105">
          <mxGeometry x="39" width="42" height="40" as="geometry">
            <mxRectangle width="42" height="40" as="alternateBounds" />
          </mxGeometry>
        </mxCell>
        <mxCell id="kC87kJWcsx4LIT5v7-lI-108" value="" style="shape=partialRectangle;html=1;whiteSpace=wrap;connectable=0;strokeColor=inherit;overflow=hidden;fillColor=none;top=0;left=0;bottom=0;right=0;pointerEvents=1;fontSize=16;" vertex="1" parent="kC87kJWcsx4LIT5v7-lI-105">
          <mxGeometry x="81" width="39" height="40" as="geometry">
            <mxRectangle width="39" height="40" as="alternateBounds" />
          </mxGeometry>
        </mxCell>
        <mxCell id="kC87kJWcsx4LIT5v7-lI-109" value="" style="shape=table;startSize=0;container=1;collapsible=0;childLayout=tableLayout;fontSize=16;" vertex="1" parent="1">
          <mxGeometry x="680" y="160" width="120" height="120" as="geometry" />
        </mxCell>
        <mxCell id="kC87kJWcsx4LIT5v7-lI-110" value="" style="shape=tableRow;horizontal=0;startSize=0;swimlaneHead=0;swimlaneBody=0;strokeColor=inherit;top=0;left=0;bottom=0;right=0;collapsible=0;dropTarget=0;fillColor=none;points=[[0,0.5],[1,0.5]];portConstraint=eastwest;fontSize=16;" vertex="1" parent="kC87kJWcsx4LIT5v7-lI-109">
          <mxGeometry width="120" height="40" as="geometry" />
        </mxCell>
        <mxCell id="kC87kJWcsx4LIT5v7-lI-111" value="" style="shape=partialRectangle;html=1;whiteSpace=wrap;connectable=0;strokeColor=inherit;overflow=hidden;fillColor=none;top=0;left=0;bottom=0;right=0;pointerEvents=1;fontSize=16;" vertex="1" parent="kC87kJWcsx4LIT5v7-lI-110">
          <mxGeometry width="39" height="40" as="geometry">
            <mxRectangle width="39" height="40" as="alternateBounds" />
          </mxGeometry>
        </mxCell>
        <mxCell id="kC87kJWcsx4LIT5v7-lI-112" value="" style="shape=partialRectangle;html=1;whiteSpace=wrap;connectable=0;strokeColor=inherit;overflow=hidden;fillColor=none;top=0;left=0;bottom=0;right=0;pointerEvents=1;fontSize=16;" vertex="1" parent="kC87kJWcsx4LIT5v7-lI-110">
          <mxGeometry x="39" width="42" height="40" as="geometry">
            <mxRectangle width="42" height="40" as="alternateBounds" />
          </mxGeometry>
        </mxCell>
        <mxCell id="kC87kJWcsx4LIT5v7-lI-113" value="" style="shape=partialRectangle;html=1;whiteSpace=wrap;connectable=0;strokeColor=inherit;overflow=hidden;fillColor=none;top=0;left=0;bottom=0;right=0;pointerEvents=1;fontSize=16;" vertex="1" parent="kC87kJWcsx4LIT5v7-lI-110">
          <mxGeometry x="81" width="39" height="40" as="geometry">
            <mxRectangle width="39" height="40" as="alternateBounds" />
          </mxGeometry>
        </mxCell>
        <mxCell id="kC87kJWcsx4LIT5v7-lI-114" value="" style="shape=tableRow;horizontal=0;startSize=0;swimlaneHead=0;swimlaneBody=0;strokeColor=inherit;top=0;left=0;bottom=0;right=0;collapsible=0;dropTarget=0;fillColor=none;points=[[0,0.5],[1,0.5]];portConstraint=eastwest;fontSize=16;" vertex="1" parent="kC87kJWcsx4LIT5v7-lI-109">
          <mxGeometry y="40" width="120" height="40" as="geometry" />
        </mxCell>
        <mxCell id="kC87kJWcsx4LIT5v7-lI-115" value="" style="shape=partialRectangle;html=1;whiteSpace=wrap;connectable=0;strokeColor=inherit;overflow=hidden;fillColor=none;top=0;left=0;bottom=0;right=0;pointerEvents=1;fontSize=16;" vertex="1" parent="kC87kJWcsx4LIT5v7-lI-114">
          <mxGeometry width="39" height="40" as="geometry">
            <mxRectangle width="39" height="40" as="alternateBounds" />
          </mxGeometry>
        </mxCell>
        <mxCell id="kC87kJWcsx4LIT5v7-lI-116" value="" style="shape=partialRectangle;html=1;whiteSpace=wrap;connectable=0;strokeColor=inherit;overflow=hidden;fillColor=none;top=0;left=0;bottom=0;right=0;pointerEvents=1;fontSize=16;" vertex="1" parent="kC87kJWcsx4LIT5v7-lI-114">
          <mxGeometry x="39" width="42" height="40" as="geometry">
            <mxRectangle width="42" height="40" as="alternateBounds" />
          </mxGeometry>
        </mxCell>
        <mxCell id="kC87kJWcsx4LIT5v7-lI-117" value="" style="shape=partialRectangle;html=1;whiteSpace=wrap;connectable=0;strokeColor=inherit;overflow=hidden;fillColor=none;top=0;left=0;bottom=0;right=0;pointerEvents=1;fontSize=16;" vertex="1" parent="kC87kJWcsx4LIT5v7-lI-114">
          <mxGeometry x="81" width="39" height="40" as="geometry">
            <mxRectangle width="39" height="40" as="alternateBounds" />
          </mxGeometry>
        </mxCell>
        <mxCell id="kC87kJWcsx4LIT5v7-lI-118" value="" style="shape=tableRow;horizontal=0;startSize=0;swimlaneHead=0;swimlaneBody=0;strokeColor=inherit;top=0;left=0;bottom=0;right=0;collapsible=0;dropTarget=0;fillColor=none;points=[[0,0.5],[1,0.5]];portConstraint=eastwest;fontSize=16;" vertex="1" parent="kC87kJWcsx4LIT5v7-lI-109">
          <mxGeometry y="80" width="120" height="40" as="geometry" />
        </mxCell>
        <mxCell id="kC87kJWcsx4LIT5v7-lI-119" value="" style="shape=partialRectangle;html=1;whiteSpace=wrap;connectable=0;strokeColor=inherit;overflow=hidden;fillColor=none;top=0;left=0;bottom=0;right=0;pointerEvents=1;fontSize=16;" vertex="1" parent="kC87kJWcsx4LIT5v7-lI-118">
          <mxGeometry width="39" height="40" as="geometry">
            <mxRectangle width="39" height="40" as="alternateBounds" />
          </mxGeometry>
        </mxCell>
        <mxCell id="kC87kJWcsx4LIT5v7-lI-120" value="" style="shape=partialRectangle;html=1;whiteSpace=wrap;connectable=0;strokeColor=inherit;overflow=hidden;fillColor=none;top=0;left=0;bottom=0;right=0;pointerEvents=1;fontSize=16;" vertex="1" parent="kC87kJWcsx4LIT5v7-lI-118">
          <mxGeometry x="39" width="42" height="40" as="geometry">
            <mxRectangle width="42" height="40" as="alternateBounds" />
          </mxGeometry>
        </mxCell>
        <mxCell id="kC87kJWcsx4LIT5v7-lI-121" value="" style="shape=partialRectangle;html=1;whiteSpace=wrap;connectable=0;strokeColor=inherit;overflow=hidden;fillColor=none;top=0;left=0;bottom=0;right=0;pointerEvents=1;fontSize=16;" vertex="1" parent="kC87kJWcsx4LIT5v7-lI-118">
          <mxGeometry x="81" width="39" height="40" as="geometry">
            <mxRectangle width="39" height="40" as="alternateBounds" />
          </mxGeometry>
        </mxCell>
        <mxCell id="kC87kJWcsx4LIT5v7-lI-124" style="edgeStyle=none;rounded=0;orthogonalLoop=1;jettySize=auto;html=1;entryX=0.308;entryY=0.011;entryDx=0;entryDy=0;endArrow=classic;endFill=1;dashed=1;strokeColor=#FF0000;strokeWidth=4;exitX=1;exitY=0.5;exitDx=0;exitDy=0;entryPerimeter=0;" edge="1" parent="1" target="kC87kJWcsx4LIT5v7-lI-75">
          <mxGeometry relative="1" as="geometry">
            <mxPoint x="470" y="50" as="sourcePoint" />
            <mxPoint x="650" as="targetPoint" />
          </mxGeometry>
        </mxCell>
        <mxCell id="kC87kJWcsx4LIT5v7-lI-125" value="" style="whiteSpace=wrap;html=1;aspect=fixed;fillColor=none;strokeColor=#FF0000;strokeWidth=5;" vertex="1" parent="1">
          <mxGeometry x="600" y="80" width="40" height="40" as="geometry" />
        </mxCell>
        <mxCell id="kC87kJWcsx4LIT5v7-lI-126" value="" style="shape=image;verticalLabelPosition=bottom;labelBackgroundColor=default;verticalAlign=top;aspect=fixed;imageAspect=0;image=data:image/png,iVBORw0KGgoAAAANSUhEUgAAAGIAAABWCAYAAAA0TkO1AAAAAXNSR0IArs4c6QAAAARnQU1BAACxjwv8YQUAAAAJcEhZcwAADsMAAA7DAcdvqGQAACIfSURBVHhejdxZj2dV1cDhqi4GkVlAmYduIkJaAsZ4xQWEEO+55Qb4JP1F+BJeSwiYqFdAMGBAAZllEGVUAeGtZ9u/ctWh6tWVLPbea695rb3POf/uZveRRx75Zh92joOj9tC+/vrrhbu7u4tmDk6cOLFG62TjAVt97Rm3uo6DqXcrl91oQX7ZmxhsdQFzcnDLu4WjaNn417/+dZbybUjv8i4HGDznnHN29vb2DhRj/Oqrrw6QUjT78ZU49JnEdAD05MOZuBwKoh1Fb5y6tvqaH0eftElvvcVsTtjuzf3tGlTULa7c+8+anCVslXFOMLMQaIAMwDfpjSCHjsJ0p/+LL77Y+fLLLw90wfjmGgLr5KMfhVNPYza28nyAM1YItsmDINkJeDTqlAmSnTpOpCSntgm3h3kq28rkbBiY44snmE7Q2bg9idkIo4UTtntbnLFtdQE0PEE8jVM+vvwuBpC+xoCewF46ox8qxDQ+11uYSpIPk2t/Br8Fzh+FxwH9W0hm2p54HD1sP90lFgb2Qrxig5M+YfIC/k192Z6wdqfCmEK042CrbCtbMSZmJ5h2J3/0iZMfzE4EyaZnyk7dW78m39Qz6Ufh5AnmPmSrZgFkgsn3nzJtYAqDBDIeNM/5o9CJwJfO9HCyE+PZ0DMC4JNo15UXiF4izjvvvJ3zzz9/ofm55567sPs42PqQPTjjmHNQkbY8wVExHMVnnq1kiqn9CbuPPvrooiRIaYqjTyHzySMJlJt//PHHOxdccMEyaB+Y01tSA8lHR6MDv0JcdNFFK8EXX3zxwfzaa6/d+ec//7nz3e9+d9HJfOc739n58MMPlx42Pv/882X/73//+5p/9tlnO59++ulCsmz94x//WH6QJaeYoFguueSSA56ZuPbNK/oEfABPUPwBnvbbow+g7z788MPfKsRUuAV7EF+YIwKWPLQ6fQYF0q3zdbnEKt6FF164c+mlly55CarT6/yKiff73//+zt/+9red999/f+kgq4jZkEyFAHzAq2h/+ctfdj755JNVKCNbkko3Pmt6ZnOBGYM5mWxNmHn7/+ZTb7D70EMPLWqKt4Uwn0bbqwgCsC8hkisIPBWV00ZrfPYlVndLvEKYQwnVrRwsePKXXXbZSq4kgSuuuGLnz3/+885HH3209JGxT17hnApNoWj0WiuGE4OO96233lprRaGXj/jFwCb74jDyFxSH/Xj+FyAX0GktthBt74477jgzN0q0cc4nbHlKHKBr8qPniKRJ1pVXXrlz3XXXrStHd//gBz/Yufzyy1fA+PnRc4Hs9773vQNboSsH4NUMEloMEgslS3LZ7eSwzZ4CBfTlo3mQPj6hK0INRXe+/DfY6t7K2d/70Y9+dMZiVtjGFJojMI8nemuOtm8e6FonQCJOnjy5c80116yrQLdLdFea7u2U8UcHm6PpVijJbEisJLNjXwzAPEyGHjJ4OkVsO5EawD7bxcN2yWaPruj4+RQvsD4K8IgrsE4uGevdBx988BvdwjmGq3owjQUpnyMZ8ukQPOc5rQASX8Kvv/76NQqebTzk8Lvb0XW4rneX8w3QyZ4C3HTTTSuRbPeAZrdmygcjvZJpj67sdSXiefPNN3eeeeaZNcarWOmvAOQlsOSWTGMIyDXSP+lbWbS906dPnymBNlLA8FS8hfimsmgMSbBku3JcQTfccMO6EnSgACEb7ukPPvhgJT0/yKNJSldQ97mg6Lj55ptXYuggU7ASxTZozwjxKLQHt+TidXXxxahRyCqgYuAnl166xKiwRnugPJWLoJyUeBBtC3t33nnnmRQcxRRt0re0nOj4ctgp0PlOggJcddVVi6YD7eMXsIfoX//61+Ws18dOwnvvvbf28EsONJesG2+8cSXPQ5echNBFJz60ElkhQMVwyhQEDx0QXdPwE9hLByArXjGy0zpA20I5moUwn3LAeu/HP/7xmZinAMUpCoMtvT3yulVCJd/1IXGuEEHa81ZTESRdEszteX5IvrchiO5USYaOpZe+q6++enU1WYnve0CS+ICfrJEto6Q6QfFauwLJ2CenaHww0ku2ghUj3k4HGXR8cMLMSVCukpu0g0Iw0OZWadA+aD5pApV8RXASXEkS2WuqLhKUawGa18n28ToNaBIEzQUugZ4NnSgFA9bodKORF0tQLIJ3iugh38h/BYH2gTGf6YP46DKy1XzmqlwYYQnf0uca4FuFiEhpRqKBaFU3J4BRQBLiVfSWW245dA3pYKPk6C6drpMFLnEKUqdLOh762FAozwp7EudU2HvttdeWjFNWYfhGn+JpiDo6H+2j4RWPZCtwsdjnU8AeG5DP/ARk8cJtHmD74g2nH9kCk75+fUXo2HIUoEGKSwygRIK6V8m5ejyMT506tT62HG80wUJBuEqg+5msBEO68QsYn0SCeTWg8VPi+PPGG2+suWLjIyeJ/Hc60AqWHHlyYCYIn0LSk33Pq7fffvvgg8+r9l133bWed2IhA2ayA/PsgrnmxxYD80PfERAxYYmoMJJvbs/dbs0xiXcVuYacBAFJbN3qZwgPXjI6XrAVQafvn8ilQ7Ls0Z8NSfEFza6Cd10opMSyj5fegA7FVpji6ZTkv7XYFDN7kuZqZE9s1vTaExu75hqDbnpLdM0aTbHQ2GC3JgZ4IEBvvV5fJwPFQQoo53yGS0zdL6EdY8kREF1+23EKJJXzOkxhXCFkb7/99iUv4E4KG9B1oIDk2cJHryB1vmS5qgSMnw40frKNXvLznw9GtOjiwQ/M6TTSlx4xdWrQ+caWPZCe1sC6QtgH5ReatzYeekZAQEFFKMBooWR4l9f5HOSogkgwhyRW0utOydfhJfDWW29dbz86TLIVicN8UBA0p4asE9dzQiEqwCwEGbzm+U6XxEP7Tot4yKBpkBIGyYoD4EsffradcM0gJvEAe3TgU1zrckmnU1dRKwLeeMJ1IgjnPGhOiMPGjAAjhxWCYxLi6HpTQuekJPYRBnvzUDhvVngl5k9/+tPiVSDAlo5zmsi48z17JIIPCqHL2BGkoMiWZDYKViLt1UzG9rpixFL8UDxGehQPnzlZ9vltX5OxiZbf6TInY54sWrZnIZJdP/pRLEBKbSakCOiOJqcEQ3nJrDgSIgBOuk5effXV1f32yOgghZofeBL9u9/9bvGzo5iSLXCFNNLvJcAdzX5+GvlAd6+XJcpe/odisqeA5NHos4Zk+CAGSbLmiyag256kKxx5P1iivfvuu2sUf00BxI0PsDN9wV8BQPk++LK2oMhoEw1YV1FOS6hulAhXC+fNvboy8sc//nE5j59DjrOgdLnut6+bPBQVSwHSpUhsC5ic50LPnAre6aPP9cVWV4jgyeHByy5Eh81BxSkRxc1ODSYHrkQnW2zo7KB5K3TSNZSGaI+e9MobueyFoPxG27f37+uGAIVV1RgT5QShIHU0RxRG1yiMBEg0kAR661jy+J0I3SQAr4e6DC8ddOkeCXZVdQLIS6C5JNIr+FdeeWWdmh6kdJRo9hQHkDOXlBJVrBWQTnHZw1eR6c8/evGStceWq1lRAH/LFx10s8E+veUxsG6EJ3KOAIdgc5ASDulEaA4KwFpSdXp3ag5wyCjRPdQ52NUgQB1UwlxjrivJVjAybDo1Fd+eLjVH84IA8fBJ8ehZAZ5dw+JAY7Mmgk6d5Eoi/6A5yC7/2O2lg1+aUhPWuECxyIp7IsBzFJ4gUFeUGHM4BQXQFzNDEE0hzH0EcdL9zmEgubC54KF9a8GzZ84GPxSIHvcvXQrBlxItWZKcPH8kim946JEoXcsvCdDhCgH4S46MZ4/rkCyahPKNHGAjO2LtKuIX5JcrmQ+AbfbKaev2tliB8K7XVwrbZBjYhBg5xskf/vCH6yhK5v5DfgVhLlA/OxiTp5OM5Em2BNZx77zzzholQ5B1O9muAyOdnikS7wrihzmf6NfRdTgbEuV69PO5uXj4ZK5I/CHjevTFrCj8p0+HKxZ+thWETr/00qm4+GoyueETnW4Cp5j/9vOH7ooK+APoqRDlfX1ZtyjxRmuKoQSqvCJY2++64LzuK1keuiVcZ7uynDTOcUrH45cQD2P6FENS8Nqn15F3GvBKkkBLLj4+GPkraAnQrfZ1KFm6X3/99fVigKZokgPxe7vzrKJbHArAL8BW3zHkxBa9XLGLjuaE0CFudgEe63Ia2of0QHDwd1+hZIEMSZxRYhXBfoG3p1M4wSCnFUTiBCsosvhyhtP42GCTLjyCpYMsOxLpyrCvGPThC9EVUENYA4lQSPJds/xkj+78YJud+faGjw+KS58TJGbxkJ3+4tFkCgf683f62eYr/uTQzdmAaEF5/1YhjppLaPezAK17eHGq5DFQgcjVgfaAvboYbSYXPzqgB+Kp4/DgZwvYUwS+SE7ybKQHf6eRHJQQiIde/ljj4S895JxQ+qPlkzUbCl7siqYQ/LBPF/3yAMgF7QF6w5UhjGuxz9RYcBTrTkebcxLCQWsdwZH44DYpsGQoXB0bvzvWiB/i5Q+9ZHV9PtaJ2STLH3sFiw6KKZ8lmxwfICgh+cN3/Nbkazp76UcrPv44hfxwlWqaZIsHrzX6bMr2wvX6GubYZOCYI8oIRbBiONoc6QRkzFwSCzrnWk9eQQgOv8AC/PZ1m6K7x93nvbXQIUFG9skb6ZVQo3iMJQ/gURC6xSbRPaNqDPIz8c2LW2PicaJca/ymg68KLsZOHXsVAvLD2l70lQ+LsE3ClAmOowphTrl9QXCkhxPklLtcx5rTgQ+SYbCuA2xxQHAFK0Eg3grkFDl9eND5JnH2AZ78KhHx1kB0pMubkZEv7Bv5Uxwgv/iIDvDR6Q3PPjv80iTAzzFodNMnDnkI+QTtwQnrnMwqhQXGqI6UJMo4pzjmHBMop8jkMLBPBtpbVd93jE5dR4dklgRID5o5OUHqfnMyuq7jb6TTnsDBLKg9PN3z/CGXvXTAaOUBr1hKKHloHx1/BUTTkOS8BRohmHN6NALdaNPW8g0BxgxjFFjBl1BzSdQ5nJNYiNeeEWSAcUdXUFDH4K+jZyGa61hvM1Dg/VhYUisiPQG57BmtxcFGjUKWnBEdpkN8+KE5n/lKF1A4ObE2poPPgB7Ngg/Sw+Zc59eRtKVlH3KiADAyBq1zKiW6AC+nBY9PggA+MgWJ15VlhPaD6ZCkewb4SvdR5qpzGn/605+uV0T62UGr6JKMxgfNkZ/WnQx8aOYSh7842GaXXEVsBJ0MNCAmcnRUiHQ2x8OW/BjxA7bgtH1AiyEgmLBgKRUgHoo5xGlBonPUnLO6zT4+IBi8nQZ0OvGR6yMID/QB9Yc//GE9lK29Mu9/cK4vekXgk0DRzfPTyC6dIBpUKJ1qbl8caHgAH/klqYD+5NHFFs9K2P4exA+zQ27SQHrIGa3N6aRvyhx6WIPmCqDzBCGJQNXR7ecgZehByQD2cwZKgGcO/q6rCup54EryJWyO13XkD4XoSC96JwOUIH7ZU2hjAeIjj49NPuFRuPTWJHDq6fqE/M+WOT5j8uIA2Stm9poD8mDS6P3WWxMsgT2oCUg4xzwzOKpjOcNwzqJtAb89vOTd80AiSqavVycDH7vs06VA0GuyJPKD7XQZS4zi0G20h48ueiCddEhciZVsgFaXdsrbp2ueEmjOdvwaCJKrEPxiM/+C5IF9MnAVogJUBCMBwXCEck4ZIcfIUZgia8HY42TOkq8Q6TEvOAVwRekqp8+HkX3F8Zx48cUX1/OFDT7ZA435Ta8i8LlkoNetZCWNPZBfIX148CfDZrmwX/zQ2l6FhqDiajS5JGtuLGZ0tHK46BZwwlybp8S8KucYZ9AAPrSKYc6xisgoHmBNzgeRpHNMEv1U4DWQDgV6+eWXlw02wwBdskp0geLJL3qBPXw619Un+dErBJn8n3roto8OQfZgMmjpJWudz+Z0wnw7RE9phOaYBFFXWE8FJTrH7GUoXSUfryTnJLAGOpSdePqHK640iVMo+uiHgF78YPqIxh7/gDmbfQ2Tcz15G5u6IEBzqpxMtPIA6Eq3HNjjL166jex34kP+4QXpys9igocKEQKbjptjak4J5wRGCWXmaNaSkZP46VEkdBi/kYyAOymCkCzXBZpRkEZvSPQKKB+6gtidftuj39weHvIe+k6aX3PxOGkQD59mN+dTegC7YuJDaJ9/fPEc7dmJRh7SW+MaIShvgC70g2eEMcxobxkMUKryEpbz8ePVvXg5X7LxKKS7WVHxgboOCqKHrLWiOQX4e30tADrxCZpu+tg3n0nlP+QHfr8BOWWK0c81Phbpnb6yj2Y/m/Sywa9iRCNjFC+UI7boww/M+SQWcvjSB+3n+4mjilAhXBscYMSaQhjNiA44BnWUgOwzQJeRI4qCHx8QGGfiswfd4WgSCPHQR28dx1f3PR9LWsmxLnElL98UnR4vABVcgiQEH1t4JTBEA2yWdDRr9shG03RsisN+fBXBaK+8kMVz6M8jAnOMEiJ51gL21dsvrgxzPIU5DEtqSYiODwoUjyQAzgBrTktifNHwWBuhfUH3WoumSPNqAeyUCDQ8TjaaQtKfLf4Ce+RgaxAfG4FT0DNCrApsZC89FQlY22uOF98qRESYUfMZqMRaKw6HOcMxWBIUg7x9mL4KAfFwLLslFl8BwHSj0WUfHS893rT4wobkVCS6Kwb59AFy9iQPbz6iW8/4QXN0SE9x8It+RXCFip8+TYoXlGS68Zrby6/0oh/8dRqJ7jgBc4EqBEWc76HEqLVR4EZ0H4DAKer6ghmeiYK6aN6r+CAewDd3Oh86mXTo4ueff351H146yPGZLjR8Jc5Il+LYszbnd/vkrfOh5NkXCyyx5nwCCsFH+rpBZoLRjWQhoBewC1bsh6py1gGgugKm3EmQOPe16gsmLIiuJvv4rN3BnKYfD6cgoE/x0CFd5AWIvx//JFkAigbtP/744+uvawL28fqbFvylh42KTjd91vSQV7B4xNkPkuzjKXZyeDWgJuMze/zYNiR5P89UoBkrvSF/QCNYua8qwDzEyCnPBH/HiNOM+aswDKLhqYt0guRzngPo0FoxAkHiNdJvv4CtydJHF5ve+T1gb7vttlVkSfPGQ56cwNHIs2NOpo9EiBdkC3Qqs1cj8gFIGvsl1D5dRjzGeIxyU06gHOLh08xxgOdQYfyHQGPJSVhXKwYBxqwFr2N0hoTZKwBJLqG96oKSYK9Ct+YsOfp1N6jT7PnzCF3Jpj8NkxD8/OWLX21LfH6Tc5LrbLwFL3nQiVGMThFf8NGRHnzlpTU/6S6R9Hvwyw25+I3AWPyQDMiO9cH5wAzropwv+SkjJLmcKNEFqPNgCRGgZNrLCTADwCtZ5CRTosn4wnb/6m562LfvQ0zyBGrdTxYSj1Zw9NI5aflptJ7FMJ/dm2942SaH18gHNs2BZuAnOijW5JrD9kF+rHmbCBnnELQ2dgok3oeR34J6W+gKcTo4l670dmoAfYzDdCsCNCfvRLDhXxP5IvYscBUqkEDxKZIO9hfEujYruP0KwA7beAuYX/agOTo5I1rJTQ8/6eiXaDKdPnRy1v39KHL0ALrYPg7oDg4VwtzmdA5NcvzVRyA4wUPOKA7ExwEyjOseCaKPrvQBvGRhNujzh0Iljqzgf/KTn6z5Cy+8sH6NTdbV5XoSOJo/TNKVgE6+lMgKb62hkqsYkH+aBi+wdlKsFdkekAu6rPlJVpP4B5auq3QVb/bNYXOA177x0E8cgALJgClzPem+utKd7Llh3msrHV0hGQS63VwyjXQKQvEECHSUNyT6dDv0c4S/d+qvcEpg3zB4JVwSrOmnR7eyK8lddfO0hZLPV1DskGzda+SjYsuDfb55UTHaY88eOxrEXvFBMJvNHjSHbJfztZ8zbaTsgGF/TRkH3Megvz1dknVODz0y9HFQouisCFCQdb2k6DDHmox/V+dfInk494zoXmavDqXT3MgO8Mocz7ym+Mj/Titf2M7PklWh6LTPLlv4FFcTQnoUIltk0TUnfkBHBWfP+jigHx5cTUaICCgBrQWsExlWCE7UdXh0uOAzLCj7aKE9RQB4euNx4ui8++671ynwDOq0CIiMorBRMdikgz98bd/ohEoUPnvFZs0HmO72zCUcfzFXGKdRIxortGIoFhl7PR/TlZ6jMJi0VcISNYHCOVLsHnQXM+7BxDgnrCUAdD3BnAWCF4RusydI8oohcb4ToKuoTlMgVxGgJ33t0QH4ji5BrpM+wBSjpOdTgVeElYT9AplrKnHSb96d3xXIhq9oehWdrBPt22Umvuag1zy6NTTfwgmJCTnNQUZzlKA9iiXfF6x/t4AmSXglogTgk8juV3wcr2PrdKeFfjwSjD8ejtLdD4ygLiNjbM02nfRUCDR71nwpHrGIsaargHgmnc9k+cVPcaO5/uK3h+6Pcl2tfK7oRrb4gM7nwDqsMOyufzHEmMohwMkc2te9Hqr+/ZrkckqQkiZhXmc5iS4xyZlDRqczFQHdqarrJE2X6Ta+4UUD9nW7pHiWSDzbfJvJJlPhmvMFAn5C0MlyJWoEPtV8not0ahI2vVq7Rp0WRXjppZeWrxWBfvPWZMPinlCR1jNCAJxheAoB+wWDz1XUP/AgI4ESZs14Vwt+esiWECMM0PBUJPolgE7FFWx22cJvX/I1gr9rKnF8Yl9C8FRgtiSGDKjp6ONrJwCYk6k4bHul1vWKoMmMriaN4BT8/ve/X/uAvgrN59XlZ/PYCAEfZz74c8IR1GU2EIzBnKdYIBx89tln18NbcFASJJCTkiN4huusdE9EA3xIBriTJYKcAPEJ0JguqBgQzUnVvfQqhISmL8guIAPxdA3RyWenS4K9SLDLN4Vgiz/Z89pqHw3QLUdBBcCf7ewboxtPdI0QmpsURMtBayjhnhOSzxHBcFJnCqKOnaBYrh78dCos25Lg2dJXupMgoWywiSdeI1iOnw2SPFsKR5Yde+kmwyYZYI+dkjd5Ad5eEsi4jvjmJHT1KpIi8LN8FRe9xhDUONb48yUQx97+u/v6343GOBVgSEiyU8SorhWk4yoR9jmmEHVk3Sw56E4TSK9k29Nx7l6nSTEFWiFqEiN7aFAHAzR7gL3udzCLXzHssdcJIE+Ov+LzTeCqFR+9/v9TXUcajM6nn356IV+3OcvHuWY3mhEUR7i3/wV7hpPBVDqVpbDqckjCJAnal2iIz1rAAlQEXVYhAN3oEK9TAXvwZhuY12npplcA2Ze0OlR3S3gFyHdgjneeNLqB5HtFFxv9mszvXRVBc3hAP/nkk+tGoJNP9NR0+Zdf24Tnc2AN9va/ZNf/AiJnKYuZkRJir2AEyVEOe05InK4RIKcBp6Gjzcnk6QfsmUuUZAi0zs6H5pA/eNuTNJCP9Olk8xqgOPhb1+cLPms28WkAzwR73p582WuMrqTekn71q1+t38Q0FTlY4qcv7QXmeCZ97u/tH73176wJU2IzxTlsLQEBmiI0QldAP33gL+kSbF0y0MiZl1gy3dH47QM+5Bv+RrokLuCzhGoKsj1Y8ZOXcDJ4jOk0ahbPOqeJnp4HTkOF4KNfgX/729+u11W87JAHYiWbj/kfbNcBmXDv5MmT60RQugj7ikoaoARWlKCEAt0hGJ3oRMRf4uIrAVByrPFJkGK6cxXECbFHzkiHfTYBP60VjR767HmbIyOB6EAsngfFA+gEmkdBdbumYFsB6IXmdHtD/M1vfvOtv4cbAiO9rcHcn7Cl83nv1KlTqxBQQjjdvckJTJw0xmcugbBkuiq8adTR5OlybUkSnhIpOV0fdNOpMz1z8OhmYM4nNhRJAtJDVvd2ktjhQ7bz01w87LCRPboUwQjYqUHEwHdrJ+AXv/jFOhHiQ0u3ER5XgEmbED8dEBwUggFBSQKnMJRsmED0kpss5X4K7udgegTkuihZjnT3cFcHfZO/P4+G6GjmkpY9oyLY19X2JdwHnsQqGsAr8TpeJ0skXr5XFA1Bl8TzjR/m9Phge+yxxw7+YgI5ULyQDWMFgqARlDt8wF60ZNbDuuRCzjFagNbQHr54p/JoriVyiuF3InK6X5eVCEUWvMR6uKZLYnS17rUnMHJodIDl8D7dC4CEkZUwCVIIVwn9dTVdZOxDuvjHXrp6JvDd2r7/R/gvf/nLhYpAtz1yxZr8LEZzmL+QzNxP3vpAx/333/+NCcgQTAGhLcZjHljXafRJhAB11+nTp9e/geuk2QMlvoTRJ+n0GCVAM0gsvfbxlZQaBOCFCuOKopsf9KS7xlDECqYQ5prEnwL++te/Xo3kmuw7gWxJo6vCrATurxu3EJ3dZIH40gfBemuKicE6jAMQpGBrLBlAR8lixCghAurqwGNPAkqkxEDJwGNf8ejuZKLzKXm6JZrefAToBVaw0NwePU6jBvFA1wB8lnh/Yc1J8KHmo47vbNPHBj3Fn5+gPNEPA7wh+yCZ+IpnzV1NJgQonArgdABkOJRM+5RKTPyM2ROMu9fVZC14J6KCS7pC5BR+PHTpUglXOLJ00s0ufXjx0ZXt7NNJzpoda88qhVAEhdckngNeS5944omd5557bl2LbGUP8IcewHaFoNcaHzSfwA9IV36B4gjB7r333rsv/59rJoGUxmw/56ZRexyyJxmC1GU6ykOybk9/14EvVv/PJH806qqgx4gu+XSQp9NDWOLR2fUs6I8tFVCiIDv8UCB7FUIB/ISCpilcQU899dT6FVni2SDDV0AGSrgiQ3boZ2fmaoIYksU/mys6IN862u7Pf/7zb0okBsoE2xpjNOvQGqaoQqBxHI9AJAPdGthHhxyVfF+yCihZP/vZz9Yp4RO7Hsz4vHEBcwWRNCOQHMWRcKeNLxLuhcG1489P/CThDc4pU2DJoR/kM5185TM79OBBtwZo5mj2wqB8wRJNZu6BKQN2H3jggdXaJRjMwkywtgc5D+oiHZxBnQPwVxxOFHBBmaNLvAQaFaSHvGvETw1OEDvWUBAK6NRJrK42SrSTE6L36qqQ+LMJ+VfSYCeqddDVVMzJ4zFGmzJguwZomhDQl8711rRm+9BGyeZoNNja2DylAqgQHGdQ0BIB4qPXHllFAoKwb6RDkhXCqDBQoRRB5+tY+xJbkt33TkBdPxuDPf7yJ5+jtT99iB4oEB5gP4xmnLgFNHYBOY0YLdy97777DhViJhnOggTxxQMoFjj+DOHpWrLuJOREukG60MA2YKNTochQMRSihJMLrenNbjrCoHW2u3KCo3yB+KD5FuhDn3ZANtBrhGhg95577vkGMQU2OFAg5jEH8YASSV4C7KWvpKBNvgKYes3jm3Trrd7k87O9kmOeDnOAL7mgxgD4JQi2DrIJsxFuAe/EYPpDh7GcgH1d/1Fa0OFxRZiQsa2hAB2N/sn737Aibv2gY+qpEFucEC3eKRNMHhjke5jt+KYOMPW0l88hiA+gnag6gHBdtjWSILQHtopB+jgNzNF0mhG2B9KX7aOKfxxkZ5uk6Wdx2JsIJn9j/NEmRA+P0h/fhPbyEyQXHPpfyc2NlAJ0OJ3cGp6K5x5ovaUfB+nhdEWcATglPXgL7ijdc20eX+stZBdsY4kfHfIDBtG3kNz0E0xetIO/1wQVA3NdPSFDcAmeVTrpcDq3hfYnf7pCwI/0dG/nE5kKkS4w/TU/CoPmyYKjeCYG+f2/wFE6tvN/w87O/wGADpJNxJb40gAAAABJRU5ErkJggg==;" vertex="1" parent="1">
          <mxGeometry x="100" y="300" width="136.74" height="120" as="geometry" />
        </mxCell>
        <mxCell id="kC87kJWcsx4LIT5v7-lI-127" value="" style="shape=image;verticalLabelPosition=bottom;labelBackgroundColor=default;verticalAlign=top;aspect=fixed;imageAspect=0;image=data:image/png,iVBORw0KGgoAAAANSUhEUgAAAFcAAABSCAYAAAAhBUjfAAAAAXNSR0IArs4c6QAAAARnQU1BAACxjwv8YQUAAAAJcEhZcwAADsMAAA7DAcdvqGQAABnOSURBVHheldzZrqTF0YXh6t7MBsxsQCDAEhwYCbgAEOJGgCOug/vjBCEQs42YwczzzN9Put9NdFLd6A8pnFMMK1bml/VV0dtnnnnmmd8P5+T3339fmpw5c2aNf/vttz+tHbMjc57sY8KeTtnjkT3m9NP++uuvf4p/LC5Vw5SzZ8+udtrrn5yc/CmG8T6X7PPlCtfZaWABaPrLL79cUEB2BdhJr9/aHmfa7z5T99j7PC1e/WO5pu65mp9zF5NpP/1amzrXyNrC3SCwu3Hr6fSbuvtqp9+Mf0xnLJo98ujF7OixOPtc7cSxH6bkUic3ycYTMW3PluBY4DkO1KV0xkn/Sv4qzjFhE56Za84XgxpPPeZLmp92cz3Z547ZkEXuxRZJa+lMqn+sgNb/SrK9mFi/lIRh5p3jTnqnfa7rX0yzSY/JMbtsO71nC0hmn8wAc540l2Z3zLbxtGtTe5x8mFx22WWHyy+//HDFFVcsvfLKK5deffXVp33KpkewQsSi4vaIh2XmbZzmSy5mk/5/5czTTz99zu/CJLOls4AAAN+nLrFmLrL2+2fGSdggNGJnO3UWrUXeTz/9tHQnc55SSuQtd/iOzdEkm30+nynlIa2veiN3GjSmgO5ibie3ggRPSXHYRt48ofNEXnXVVUv3dYT9+OOPKwf9+eefF7E//PDDmp/6/fffr3nr7OAkkyTYYJlY09Zpm9v8MVHbMVlcPPXUU+faCw2Md91JNg5sxCYTZACR5vGurY+8rgFjrbiT4AgLQ5givROMzO++++7w9ddfH7799tvVz9ca/2JcjFy5tUTLbm7KlFkzaRy+C8itTTIKVOuS6Ndms4NCDBL/9re/Ha677rrVXnPNNaekIq9rICJpoiiKJCRGDDEvL1KpnBTRiI1U/S+//HIRLo45m8J3kkaNYZnSnHVSy3+XuEjPPPnkk8uqiV3MRewsLsmPBhBhCETm3//+98ONN954uP7669cY2Qhkm08awXs+p667FJHWOlHZ6vM3thH56CP3888/P3z11Venp3o+CeUXg04xPkbuMZmYycnDDz/8rMn0mDS/t6TiCCDIufbaaxept9xyy+H2228//OMf/zjcdNNNaw7JTq8NIHw7fd2R2vm4d7LFV5ycs8iJR98an+5xGypnT404kZ9v8WY95nayk5mf8Mnv1N/JnZP1k+ZoidNEHwjAb7jhhkWk00r1XQntfoDFQp7H1+NKFWyt2Hxs1M0337wI4hPxSCdszRvvfSKfODbTnBP7ySefHN55553DRx99tE7xJFmbDyyRO8msjjk3uSHak0ceeeTZNTov02FKTqQgbIFAKgIReccddyy97bbbFinmnSDJkdKdR5DQneix/eabb5YNZaOwrhY5Kri8jUm44RKXv1w2z4awhaPPAC3C+fGBjxpPnXUb19bfJXvtuhbWaJNptCsR3KPqUXNCb7311nUFUH0n2BobPgjrg8lYsYp2B7oLEYsQcSMiYvUjsXbi6dSQijZGsqdDTn12BKmwIbgNsp6NGMUmk8jZT7KdPto/kXvMaI4JMEhzKiPWvUqdVoR0Mvgh0QlSqLF5aoxUawgg5iPWlYCERF4qho2gETLxEXaRxI5N9kQOqg4EE3iyJXzFOEboFHa7kpOHHnpokdvEXKzfmAACkMKR6vHXUh9gPrA6aQqJWGrcqYxcj66WnaLEtjG0OPKzt6Y1zk/MiZMiQx62/ElrctDqoJGM2P2Uk8jlv8seNxvt6clth2agnHLoVDmxSL3zzjtXi9Ret4Bkr3CEugqcTmQo1N3pNMoTqbQ+f+u9rplDhDm59RWPBGTItWOWh90kOJLVM8kzL1dXhHzWp01xj4n5bKc9WR9okZoWbAIBUoEeeYT60EKuE9vrFV8kRSj1YeVDy5pHvZONGLadFj7sIhLJfKyx96S0cTBFQlhJLT+kaYl+JJtTD3+xtfx6hZSDlKf6y1OOKa2TNpEcvXMnqZQDYnxIOaXIdb/qO8VOIz8E9QGl7YVdQUh1usURT2Epm3ysKdJJikyFI5jAZUOQEsEwJhWpTadEOB+b2xPDTk745LMZYncA2Od7TKy1eeU8/cmRCrDvFAeFRU7vsE5wO83eFYCgL774YqkT2xsA0GzFEROhAe7kzjk2RIE2Dga4kMCmgs2l/Ki+9WLmU2zi6YB7Xj022OGwNl8p1Q1HpJUnfmjE0oTNKbk5pYRxjwsyqWSpwon7FJHztCpM3E4DgObmuqK0yECKwmyAvAE2jgQ2fNjnE965JqbNhku/D78IFgu58JePrxrYw6G+nk7XlDkSX7vua/IsqucE1ScCAiBRxCJasu7YSaydV5RCxADctYEc85999tnh008/XSecTWQoWoFid8KNCV9KEBhZ8yTK1emk4mrFZis3P3PV1lNh87VqYacOttY7wZ7UuemkONp4ozC26Rec3BxIu+vU9SaAUECoRE5gV4AiBBUj306c9Q8++ODw4Ycfrr4iSWDEksc7soLEt7F8KwZhireBSONr7VjBfKk18fnSCg8jG6SpS35zDoqa5FEDcu+6666jBE/O9NvU9OTBBx9cP9wk9RHjFCnWB5gPs06u4jk7hcBErKRUIutOgJOQnTWF9JUYSdS8mOY76U6OQuDp9HXKifVsIrLCmwvLvhE0iehiid8GmFOv+Z4YbetJ9ZrXt0ZPr4VA6LejdlOx7Sw1z8aj7eQqeAblixytnfSbAQVMEdYo2wADpgDzSPao6rPv6ZBHsWFhI0f4I2zWIWbKlr/TSNnDB4PY7OVWX2vVJ6dD5nCFXc0U9klsuVf+heic5EAkF9CuaSWlFQwQcp0mIJIV8DxJPULWA6+4TogxYhXgEdQHrM2pCPOUj5gwdfKti21dHkUaa4lY7Obh6ICoI3u+ao98okbYKFsx5MWDMayT4MiFKZJP/8WNSaoIARQByCRXcoE84u5O5BaQiMUmewQR652cyAVGURHcB6I5ccKleLb8e/OATWxY+LRBtOuDsGE733TU08ZHLiL1zckDLxzq7MO3WPyzieDITJv748XsvHAUABCqGDsmsOQSISJiaZti14FAoDgIOjZP9RWJMKKQd999d/3O+vHHH59+SBZ75qLIQAocSIXJ9SFORNlgnxU+KOHvVCqeTTF6OtpI2sbDIbac4uFGnGy0YYJPzLCuDzQdAhAyu1/0Fa8vMCAS2U0+COODRME7ueYkrnBktklafkCJASgfY+SID2DrVGx2tNhIbIMJbN3t7OCF3QaKhaSI4he5/K1HVDmbQ3h1afmIQdkkMM542gtexTq1FLhOmqCRBbx+ftamErEkyg4hkRNIYr7NQ7r5Hu8eVdJJ1xLz1uUxLy5fRZlHCI0c1wbivbXYQDWs4s/lt9H8xY4csazBLh5/sdi5XjwN+Nnr1cKQrju3YBIhVqGc7XqnU/CAS0oimJSICBy5EgIeuRHBT9uaPIgKqDxasbKJ4IooBnzmiyvvVLH2g8GnjVGrthjF1MqlbmqMHwQ7FOwJmzQ+yCm5DJGJ2MiNYGuBrKhEP00kQQw1D2gEThJS4wol/BSDDP2wWc9XjiRyi21tkitGhc9ctL74+pEa+fpiwKN2NfTBxiYsxU9WjDoC2Q2O3VUCaQVBLJWoQAWWlOoT880RRSug09l6YMovl75T5k6lCObfxpC9GD7lgNVaGwQvu2LQSDWXGtMZqwPGHw5KujrLVS0TEzlrggiM2D5Vd8DAzpPQo9J4kkv486NiV5SYBAg29QO35zHPRxz9uSnsJ/42ILviEGsdmGJRGMJRP8yIRSLcsCDXATM2L5c81V7M+otcnRw6PZSzJGQCKQAteATvRPOvKH3+RMsGWB9gPjT4svPkzKcnQkh46Z6HHczh5FOrPjYRy4/umKdvflQ/GzlgayNTUp/dQswIsOlASpDDTFwRBZLYKXGaEQbwSnDOVlGTWPNsPf5e6/q2x8ZroB9J+to97/3yyTXVnPUI1A9juZsrf76dbnjDnFTr3Bhz+vhq7pjAdEpuAThLYDGjubMk0BMsZYfcHh9z4kVKNhHrtcjPkL03+xT2K1T/3sHp7Wnq9JRvEhtWmKqBbTh3Yml4ijVrtLbHmHH0J+EXk/W2wKhHaianEvZBpk9KnE0auWzFYMPWvBjd04j13umbmHdPc06of/Pgv8t5j+yNpdNbceKFMSzhYUONW8uP8FHDrCMlxa0eUtyIZTtzNZfU57/ItQvdcS0WTLJ2tYREf58jxsXscWbXiZ5fVfspkg8SXQfagNtwuLR7YcXXzlMkVk8H7Hx2cieJ1otHxUjypWzF7KCROGJ3TC4g1wkpSVpgdrRg5hJjdkjgoxWrExewyNUiwLxiA+1EU2skgrVyEPmRahM6EHJa7yAUT988f/jCHckdjmyqV440P7ZhdFD4xQUxTon5tU2MIkWSdCZKZoDWtfwVmhoHViKFAoZcfcT32gd014Tv/8YIWADP5595+fBvM61HbMRFsHH4qomIxc66vlzlYzPVHGEvh3ZiI8Uhp7HW6LxMB5pR81oiEMkOAMAV2wZFrD4bgLpzgXDqfIA5gcauBwR3ciu4vMbyUuOIClP2zcnnCSlfWLTFnH02pHpS4+byn601wr8Y4tG1YjLgc3EZnHOeoKZYN5/uIOpT0kkxdmqRqzVGKDKcuHCUu7z8YZXXvPjh1O+6oMZi2iwxs8mv2DP+Tk7C3qER3xOj7anJn30EF2d9iQAagE4M4wmkfgH4nAY4b6ttjl3zAMxrAigAndzu+QBbryi+2cpNyjtzsqdsvb55jev3W+vIpXyNxaJhqcZiVV9qbB0+eNs8/d2fdADI+iM/dxNFrgSMA5FzUnIioLXW+dukElgHIJICp684IpY+YrwtRKa5fMSpUBK+CoLZ2OubGP3bNb78fPtzPZB8tfynRi78lK959lQdYkasGHymPxFj1S8IUiTXCjgJ10+sEYEmyBmUDV3Bz9sdUzZtBDuAkQN0p6rTzBY+9uJWqJZveUmb4uSKJxffrgdiLjKmNpeEX1vOrgR28zCRGYuenlwAOr3aPgysnxqfT6YAakwUN2XaRwDJnyBD7DaBHZ1+jeHo9Y1MDDO+WOzN7ZtzKRJSIkZxwhueniQx400r/vRJ1n+JkBh4xhVtTjHWBZZEK3CgC8SHEnOSsE3NpRURoECljeXTwtRPj/CYE+cYwdaI1lynjOwYd+GTf1JMKk9Pl9j4mU8TybY46+RGLmMAAh45+gHVdu9YIwEXFKD82KdtiNhTAOMbwMjVItbr2X//+99FcIVEUnlom0G0xnO9teJfimBrk1iqBsSq2xhftJObZE9OT25fS/WBESxQgE6iqCR9MLEjkZRPmk/kBjyikEiJTRDXGkL//e9/H95+++3VZ+Pu9AGlX66pxHyxzcEnLzGHkIRdAlf1TIKNYaL6SO2XPLHYTPtkkcuAA3J7BJ1iRZjTJxGTGAeGTqm4CG8sVx8EXTsBEttbAxVbbn/O5FtbpJoLE21jxKMRV1wx29xIm3i0xLz1ffOL07z4OEIunsQgxZuymDIJIKdOSNqHCBI7eUQSfhKb72QGKuAp+4hFiielp2TejeJT/ghlB4cWNgQrShzxxLAeseVLIm3iN3dM2oxJ7uSAGMeTnOUrJ9yUrDuXcgKck+IjhwAUAYBKHFGt7+Smk2z2kyh9fu4y8bMDuqenMWw0ssXalT+Rk0ZSBEcyvEk4CdtstHLDIH/4YejfVzSf/xTz6xtajoBzUhiHdpt2FyIDiPwI8BEc+VPEagPFlsNjBZy729dgVwEba66BNlk8dp2W3lfZhkE/ksqtb23Od2p3fMUxX61sxYWh+DiCwQ/8cKrHGj9x99in/2mdM+A+ne2MPucIYSMpVXCAIzbgtWlj9kix83Ig17wfxvuLIN/ebLA/H1UADEThMFAxKFz158ml7I1bbyN2zBOjmihyCR85+JljB4/foP16B3/ETi3mef1fxwJAiFWcVqEVJZDkERw4frMoY2sB7uQTcYBCMF9fUfvjFYpo823ovJ5gK37Flhu2nehJqDY1JuEUSz2eunI7nXAiUw39EASTTXc4YCtOOGZsei7eH0xb5OTISyARMd8uBaYCrQFtnZibp4AScXsaFOJPrPo7Nv9R0rVQXL6KIYFGmNaaq6TfKPiYyyZSSUWSyG2d8oG3w0BgVL8DwEYOudght39vZiPDVqzypetjswHhJDByBcsx4JK003z24JNYLXvryBWPjRPqn8IjF7GdjDam+Ppk5jDH3ocg1WfPPzsij3g0KYZWLfqJvto9rQhWr5htovWIZ1Me8zPOlPWeW1KA9Dm7FuwSQiStZYe4TkwF0E6qtdbFBLT7C1Cn9e67715XAYLYWKf6YkSufBFhzZwY/PpxxknusWaXrbE2MSbWqzmVowMwiZVDbLUj1nXBrhzFo1MWJ5JMcrV2yN3iBd79ayxgBFWgpDRSqXmKXGMSOfx6O3BiEUMUBLg84VAce+2u5sUvD4XDGn9KIphO/8bwlYOPGmE1h1RPmFbN7ll8aBEtduTWllf8lXuNzsk0RqKT669vaLuleCq4guapCaR2gk4kND9tzYnlCkJupyaC2bcZ/pkpX8Wz05aveOFHhnUtmfm0xVWDNXbqo2z6bbnfl9X/3nvvHd5///31NIstVzj57Lrm/U+gEskUYJeQ2w8nroveIATw2ETuLG4X8xER8eaAbNMiVu5IkQMBikWwPDZDgXAoTizKNuE/ybUmfyrOJFZu9cmPTLl69yaeXsR6muHlM09pussF5OaglcgHm8AIRrQxIBT4QNLIrbB0gmDftcHeulgAy0fCQiLFBnpK+PNxymHRt27DtOzlmypexbNpg40j1kbZYHOugYiVz7rD5f1WznBeSsq9PtBIRWmpedcDUv2BHpJ7PXN6IrjiAKk46+w6ieIpKnKRxY8dYtnyM7ermOLzs4nGfMIi9sw/xZo5ucUKg9aaOBELJ1zuWeR6KmFyWn1p6ItVB4Yek7l2ct99913wR35EYiIhgmgFaAG1xg94ao6wRZq2RMVgB3TgI0krXrFoGIod0ZTA0RNDylvx/JHIBm52xlQMOV0vTqNNYtP/OYfTSxD66quvLnV6wxlf4QyrtjVycu+9957+XwLsRgIBC7g2KWhFGAecXac7n2IQRQCvaHMAWxdLnFTcqXONbZsVaWzgJdmbl28eCiIfUqlYsPQ13IeYOSfWb8kvvvji+j2ZrfgT0zEl9U/++c9/rv8ziymCB5ToT8LYe0yBVgQBvDH/lGgjuhPHVpxspkw81uXXlkssm2IcefKnbTSd82LYFFcalccThNjeDsw5pW+++ebh5ZdfXq0TXN27kovNnzzwwAPPAmmiQrX1ib7g8wQDRSuYf8Uk5ordeBbbWnpM5O7E8NHaZOTwt1HUpk1SwxK+DohNoeK4Y73iUR9gfBD7xhtvHF5//fXDf/7zn/VZwx6OcNK9rl3MnfzrX/96FggSqfPUNkbqJFgxfepLNMmaYg5obVrMxnxSIj4bYo5NhBlHrn4n11oEF5OUiw9yqTG7+S3P2PssUt2xb7311iLaddCBEjOduFtL5DRe/zcsDJuUmCaNrUWunZx3nnbGYJcP0BUvoTm+imUTQHFajwAqLn+nMxvzYrAtt7VyWIchHDMfYUudXAeEj9e711577fD888+vq8AbgjeJfMrDltafMsewnf5/3BgIlBqTxknF21GvJoC3bq11qqBZ9IzJLxLNB96YH2L4OI1I0CbiGe/Flbs7VV8esYhNEstGsZULgb7WOq3PPffc4ZVXXjn9yh8G2saGM2mdTlk+999//7MApAJKvGsONHIAoAAqxhwpDjuiH2FiBa64xjN2cwrqg3NimIRXrHk2CPVkHdugvq6L21dabwQvvfTS4YUXXlh3rdczvkQ8/uUoT3P101kPXa9ikREhjKZyJLNl18lAbEQXg5TEOGL5rsTnTzTi9Em5pw01J09r5hCmZZc9YSOOuUjttLKB2bctpLoGEOpVyxclV0M4SXHLQRM2026uh+XknnvuWX9YPY2nND8DET5U0TRy9YuXNMc3wnq09c0XL2AVRZwkKuaMUdHZ6rcufm8S1pDqtLoCvAW4BtytSPVO68sMYotByYw9a5p9kj2pv04uw92RTpJm8NbqR25fJRWCjFrr7ICMGMVTc9Y68dbkSs31hBBz+RfPXAQYexq6MsRFqt9HvAF4G/D+6sSaQ6onr40tTto4gZUm05aKczp+4oknztn+QSBhQAGbj4k5/eaoorMjPYregXuH9HI+/76sH0coMsolP//yl8OG2SSFIq57mD2/NnJuptaHrivA6fTp74S6UylC+U4ySQTvmk129acNuSDm448//nuFJPqTSP2CNtdp1G++tqSIQ5ZHE6GIpb4R9T3ehwwbZOn3asQ30HIgDo4pCEQ8Et2X/dcT6kSac2qNe6KqJ7ydfFK+dJ9bhA0l2tZIGNfcJJfOPp3k0ubmY0rYTFt2RF+iHlfkIdGJdnKRPk96BGfbaxNinLYUoa4hbRqh+shkNwmlySS1NpyTrLnJ0z5tfExOyU0jlc75KcYAkwKz74rYpbgAuisR14lGqhap1BipfcpTObxeRSbinEjj7nnriEyd6vLy1xL9SNxJicR0t82+/hwfkzOPPfbYubx/EFk/MNpJmHE2U4wVlN+U7LUTFOmDratBG/EU0QpEXqdWP0K7Y8MTvvrlK2dtJ3KXiJwndredMYt3TM48+uij5zBceEoDR1rTNt9c0ngWSWbiY/6Nk2z4KYginohd/OmXT8K3GI2nJjtp4lqP0KmXIjeZ/f/J4fB/qmjIGbKKj+wAAAAASUVORK5CYII=;" vertex="1" parent="1">
          <mxGeometry x="620" y="300" width="127.32" height="120" as="geometry" />
        </mxCell>
      </root>
    </mxGraphModel>
  </diagram>
</mxfile>
